<svg xmlns="http://www.w3.org/2000/svg" viewBox="0 0 1920 631"><defs><style>.cls-1{isolation:isolate;}.cls-2{opacity:0.28;mix-blend-mode:multiply;}.cls-3{fill:#682572;}.cls-4{fill:#fff;}</style></defs><title>logo_central</title><g class="cls-1"><g id="Camada_1" data-name="Camada 1"><g class="cls-2"><path class="cls-3" d="M223.75,420.24H470.82v35.08h-322L254.9,325.8H171.09V290.34h158Z"/><path class="cls-3" d="M392.87,290.34v165H355v-165Zm4.9-35.34a21,21,0,1,1-21-21.15A21.09,21.09,0,0,1,397.77,255Z"/><path class="cls-3" d="M476.69,181V347.08l54.14-56.74h49.7L510.43,359l75.29,96.3H537.51l-60.82-79.13v79.13H438.86V181Z"/><path class="cls-3" d="M742.88,401.22H649l-24.34,54.1H587.93L698,219.81l11.47.12L803,455.32H766.28ZM729.6,369.39l-32.89-75.1-34.14,75.1Z"/></g><path class="cls-4" d="M234.81,420.24H481.88v35.08h-322L266,325.8H182.15V290.34h158Z"/><path class="cls-4" d="M403.93,290.34v165H366.1v-165Zm4.9-35.34a21,21,0,1,1-21-21.15A21.09,21.09,0,0,1,408.83,255Z"/><path class="cls-4" d="M487.75,181V347.08l54.13-56.74h49.7L521.49,359l75.29,96.3H548.57l-60.82-79.13v79.13H449.91V181Z"/><path class="cls-4" d="M753.94,401.22H660l-24.34,54.1H599L709,219.81,814,455.32H777.34Zm-13.28-31.83-32.89-75.1-34.14,75.1Z"/><g class="cls-2"><path class="cls-3" d="M1137.08,455.18,1180,224.77h15l55.81,166,71.73-166.06,2.57,15.37,35.92,215H1329l-20.42-129.3L1264.06,465h-15l-58.61-139.41-21.28,129.61Z"/><path class="cls-3" d="M1137.08,455.18,1180,224.77h15l55.81,166,71.73-166.06,2.57,15.37,35.92,215H1329l-20.42-129.3L1263.91,465h-14.86l-58.61-139.41-21.28,129.61Z"/><path class="cls-3" d="M1137.08,455.18,1180,224.77h15l55.81,166,71.73-166.06,2.57,15.37,35.92,215H1329l-20.42-129.3L1260.91,465h-11.86l-58.61-139.41-21.28,129.61Z"/><path class="cls-3" d="M1137.08,455.18,1180,224.77h15l55.81,166,71.73-166.06,2.57,15.37,35.92,215H1329l-20.42-129.3L1257.91,465h-8.86l-58.61-139.41-21.28,129.61Z"/><path class="cls-3" d="M1137.08,455.18,1180,224.77h15l55.81,166,71.73-166.06,2.57,15.37,35.92,215H1329l-20.42-129.3L1254.9,465h-5.85l-58.61-139.41-21.28,129.61Z"/><path class="cls-3" d="M1137.08,455.18,1180,224.77h15l55.81,166,71.73-166.06h15L1361,455.18H1329l-20.42-129.3L1251.9,465h-2.85l-58.61-139.41-21.28,129.61Z"/><path class="cls-3" d="M1673,240.7q35,0,50.45,11.34,23,16.86,23,48.41,0,24.51-18.08,39.22a49.11,49.11,0,0,1,27.41,21.44,57.49,57.49,0,0,1,8.16,30.34q0,30.94-20.4,48.72-17.5,15-54.53,15h-47V240.7Zm.59,92.23h9.33q33.24,0,33.24-31.56,0-30-32.08-30H1673.6Zm0,91.61h18.66q40.23,0,40.24-32.48,0-32.18-39.66-32.17H1673.6Z"/><path class="cls-3" d="M1562,274.53q28.88,29.16,28.89,72.22,0,42.76-28.62,71.66-28.87,29.16-72.49,29.17t-72.49-29.17q-28.62-28.89-28.62-71.66,0-43,28.9-72.22t72.21-29.17Q1533,245.36,1562,274.53Zm-21.67,124.71q19.44-20.26,19.45-52.49t-19.45-53.05q-19.72-20.56-50.55-20.56t-50.27,20.56q-19.74,20.82-19.73,53.05t19.73,52.49q19.43,20.56,50.27,20.56T1540.28,399.24Z"/></g><path class="cls-4" d="M1152.09,455.18,1195,224.77l70.86,166.06,71.73-166.06L1376,455.18H1344l-20.41-129.3L1264.07,465l-58.61-139.41-21.29,129.61Z"/><path class="cls-4" d="M1688,240.7q35,0,50.45,11.34,23,16.86,23,48.41,0,24.51-18.08,39.22a49.14,49.14,0,0,1,27.41,21.44,57.58,57.58,0,0,1,8.16,30.34q0,30.94-20.4,48.72-17.5,15-54.54,15h-46.94V240.7Zm.58,92.23h9.33q33.24,0,33.25-31.56,0-30-32.08-30h-10.5Zm0,91.61h18.66q40.24,0,40.24-32.48,0-32.18-39.66-32.17h-19.24Z"/><g class="cls-2"><path class="cls-3" d="M982.94,254.11c38.7,7.73,68.63,41.48,72.37,83.1h10.6c-3.83-47.71-38.43-86.4-83-94.32Z"/><path class="cls-3" d="M876.8,337.21c4-44.6,38.09-80.19,80.81-84.37V241.77c-48.54,4.25-87.34,44.76-91.41,95.44Z"/><path class="cls-3" d="M1054.09,363.64c-6.88,37.51-35.22,67.11-71.15,74.29v11.22c41.76-7.43,74.78-41.91,81.9-85.51Z"/><path class="cls-3" d="M957.61,439.2c-39.86-3.9-72.18-35.15-79.59-75.56H867.27c7.59,46.5,44.65,82.63,90.34,86.63Z"/><path class="cls-3" d="M970.28,279.93h0a4.31,4.31,0,0,1-4.22-4.41V222.65a4.32,4.32,0,0,1,4.22-4.41h0a4.32,4.32,0,0,1,4.22,4.41v52.87A4.32,4.32,0,0,1,970.28,279.93Z"/><path class="cls-3" d="M966.06,473.8V420.92a4.31,4.31,0,0,1,4.22-4.4h0a4.31,4.31,0,0,1,4.22,4.4V473.8"/><path class="cls-3" d="M1084.22,354.83h-50.64a4.31,4.31,0,0,1-4.22-4.4h0a4.32,4.32,0,0,1,4.22-4.41h50.64a4.31,4.31,0,0,1,4.22,4.41h0A4.31,4.31,0,0,1,1084.22,354.83Z"/><path class="cls-3" d="M898.53,354.83H847.89a4.31,4.31,0,0,1-4.22-4.4h0a4.32,4.32,0,0,1,4.22-4.41h50.64a4.32,4.32,0,0,1,4.22,4.41h0A4.31,4.31,0,0,1,898.53,354.83Z"/></g><path class="cls-4" d="M991.38,254.11c38.7,7.73,68.63,41.48,72.37,83.1h10.6c-3.83-47.71-38.43-86.4-83-94.32Z"/><path class="cls-4" d="M885.24,337.21c4-44.6,38.09-80.19,80.82-84.37V241.77c-48.55,4.25-87.34,44.76-91.42,95.44Z"/><path class="cls-4" d="M1062.53,363.64c-6.88,37.51-35.22,67.11-71.15,74.29v11.22c41.76-7.43,74.78-41.91,81.9-85.51Z"/><path class="cls-4" d="M966.06,439.2c-39.87-3.9-72.19-35.15-79.6-75.56H875.71c7.59,46.5,44.65,82.63,90.35,86.63Z"/><path class="cls-4" d="M978.72,279.93h0a4.32,4.32,0,0,1-4.22-4.41V222.65a4.32,4.32,0,0,1,4.22-4.41h0a4.32,4.32,0,0,1,4.22,4.41v52.87A4.32,4.32,0,0,1,978.72,279.93Z"/><path class="cls-4" d="M974.5,473.8V420.92a4.31,4.31,0,0,1,4.22-4.4h0a4.31,4.31,0,0,1,4.22,4.4V473.8"/><path class="cls-4" d="M1092.67,354.83H1042a4.31,4.31,0,0,1-4.22-4.4h0A4.32,4.32,0,0,1,1042,346h50.65a4.32,4.32,0,0,1,4.22,4.41h0A4.31,4.31,0,0,1,1092.67,354.83Z"/><path class="cls-4" d="M907,354.83H856.33a4.31,4.31,0,0,1-4.22-4.4h0a4.32,4.32,0,0,1,4.22-4.41H907a4.32,4.32,0,0,1,4.22,4.41h0A4.31,4.31,0,0,1,907,354.83Z"/><path class="cls-4" d="M1582.11,274.53Q1611,303.69,1611,346.75q0,42.76-28.62,71.66-28.87,29.16-72.49,29.17t-72.49-29.17q-28.62-28.89-28.62-71.66,0-43,28.9-72.22t72.21-29.17Q1553.23,245.36,1582.11,274.53Zm-21.67,124.71q19.44-20.26,19.45-52.49t-19.45-53.05q-19.73-20.56-50.55-20.56t-50.27,20.56q-19.74,20.82-19.73,53.05t19.73,52.49q19.43,20.56,50.27,20.56T1560.44,399.24Z"/></g></g></svg>