<svg id="Camada_1" data-name="Camada 1" xmlns="http://www.w3.org/2000/svg" xmlns:xlink="http://www.w3.org/1999/xlink" viewBox="0 0 1154 287"><defs><style>.cls-1{fill:none;}.cls-2{clip-path:url(#clip-path);}.cls-3{fill:#d9d9f4;}.cls-4{fill:#d1d1ed;}.cls-5{fill:#304e3f;}.cls-6{fill:#fff;}</style><clipPath id="clip-path"><rect class="cls-1" x="-1313" y="-1268" width="1920" height="146"/></clipPath></defs><title>logo_branco</title><g class="cls-2"><path class="cls-3" d="M-351.56-1576.39C-394.14-1562.1-558.2-1507-656.48-1342c-20.9,35.11-119.19,200.15-60.67,356,77.42,206.27,346.64,176.15,459.62,373,97.15,169.3-128.94,313.58-44.74,513.14C-258.32,4.41-149.65,96.35-45.56,111.34c324.86,46.78,945.29-606.94,734.47-1168C535.44-1465-8.58-1691.55-351.56-1576.39Z"/><path class="cls-4" d="M-399.3-1540.42a603.43,603.43,0,0,0-140.85,62.74c-10.94,6.8-21.72,13.87-32.2,21.37s-20.73,15.31-30.58,23.61c-5,4.06-9.8,8.37-14.64,12.62-2.45,2.09-4.74,4.35-7.12,6.53s-4.73,4.37-7,6.63l-6.86,6.8-3.42,3.41-3.32,3.51-6.64,7c-2.2,2.36-4.29,4.81-6.44,7.21a488.54,488.54,0,0,0-46.5,61.64A637.75,637.75,0,0,0-742.76-1250c-5.6,11.6-10.88,23.36-15.66,35.32s-9.16,24.08-13.09,36.34-7.23,24.72-10.08,37.28c-.71,3.14-1.31,6.3-2,9.45l-1,4.73-.81,4.76c-.52,3.18-1.11,6.35-1.58,9.53l-1.26,9.57a330.53,330.53,0,0,0-2.53,38.51c-.2,6.43.19,12.86.38,19.29,0,1.61.22,3.21.33,4.82l.4,4.8.4,4.81c.09,1.61.39,3.2.57,4.79l1.27,9.57c.09.8.21,1.59.37,2.38l.44,2.37.88,4.75c1,6.35,2.74,12.56,4.2,18.82.33,1.57.83,3.1,1.29,4.65l1.39,4.62,1.38,4.62.7,2.3.8,2.28q3.12,9.12,6.9,18a242,242,0,0,0,41,64.92c16.94,19.36,36.89,35.9,58,50.52s43.64,27.29,66.41,39.3,45.93,23.34,68.84,35.16,45.62,24.13,67.41,38,42.64,29.31,61.49,47A301.33,301.33,0,0,1-356.46-617c1.78,2.7,3.35,5.53,5,8.3s3.18,5.64,4.74,8.47,3,5.74,4.45,8.65l1.08,2.18c.36.73.67,1.48,1,2.22l2,4.45A174,174,0,0,1-327-545.54a174.13,174.13,0,0,1,2.68,38.81c0,1.63-.13,3.25-.25,4.86l-.35,4.86-.51,4.84-.26,2.42-.34,2.41-.69,4.82-.83,4.79c-.52,3.21-1.25,6.36-1.89,9.54a334.07,334.07,0,0,1-10.75,37.31c-4.26,12.21-9.07,24.21-14.1,36.1-10.1,23.77-21.16,47.06-31.38,70.67-5.12,11.8-10,23.68-14.56,35.71s-8.56,24.2-12,36.55c-6.92,24.67-10.91,50.19-10.72,75.74A230.68,230.68,0,0,0-409.41-101a319.38,319.38,0,0,0,34.5,68.38,378.62,378.62,0,0,0,48.67,59.3,362.8,362.8,0,0,0,59.77,48c21.55,13.75,44.72,25.11,69.11,32.65A219.82,219.82,0,0,0-160,115.46a244.89,244.89,0,0,0,38.2,1.74c25.54-.82,50.95-5.06,75.71-11.6A505.44,505.44,0,0,0,26.38,80.13a685.44,685.44,0,0,0,68.7-34.74c44.52-25.66,86.59-55.53,126.27-88.21a1148.92,1148.92,0,0,0,112-106,1220.23,1220.23,0,0,0,97.47-119.51,1152.11,1152.11,0,0,0,81.23-131.08,1018.14,1018.14,0,0,0,61.85-141.21A854.75,854.75,0,0,0,611.55-690a721.06,721.06,0,0,0,7.61-153.8A650.2,650.2,0,0,0,592-995.29c-2-6.13-3.81-12.29-6-18.34s-4.1-12.2-6.47-18.18l-3.42-9c-.58-1.5-1.12-3-1.73-4.5l-1.85-4.45-3.69-8.92-1.86-4.45-2-4.4A686.09,686.09,0,0,0,530-1136.26a761.5,761.5,0,0,0-91-124.45,871.31,871.31,0,0,0-113-105.11,955.36,955.36,0,0,0-129-84.74,979.42,979.42,0,0,0-140.87-63.25,906.35,906.35,0,0,0-149.24-39.57c-50.77-8.8-102.39-13-153.92-11.45S-350-1555.53-399.3-1540.42Zm0,0c49.3-15.14,100.72-22.81,152.22-24.5s103.17,2.58,154,11.35a915.17,915.17,0,0,1,149.36,39.36,979.7,979.7,0,0,1,141.05,63,964.88,964.88,0,0,1,129.4,84.47,874.34,874.34,0,0,1,113.45,104.93,763.56,763.56,0,0,1,91.6,124.48,689.29,689.29,0,0,1,35.39,68.82l2,4.41,1.87,4.46,3.73,8.93,1.87,4.47c.62,1.49,1.17,3,1.75,4.51l3.46,9c2.4,6,4.4,12.14,6.55,18.22s4.08,12.25,6.06,18.4A653.46,653.46,0,0,1,622.13-844,724.26,724.26,0,0,1,615-689.46,856.79,856.79,0,0,1,577.6-539.29a1010.07,1010.07,0,0,1-61.73,141.94,1157.32,1157.32,0,0,1-81.3,131.74A1213.47,1213.47,0,0,1,336.9-145.49,1156.53,1156.53,0,0,1,224.47-39c-39.85,32.86-82.1,62.91-126.9,88.75a690,690,0,0,1-69.22,35A511.08,511.08,0,0,1-44.9,110.34c-25.05,6.6-50.81,10.89-76.81,11.71a249.9,249.9,0,0,1-38.95-1.8,224.48,224.48,0,0,1-38.12-8.36C-223.66,104.2-247.17,92.6-269,78.61a366.85,366.85,0,0,1-60.45-48.74,383.07,383.07,0,0,1-49.15-60.1,324.48,324.48,0,0,1-34.85-69.39,241.26,241.26,0,0,1-10-37.66A230.42,230.42,0,0,1-427-176.07c-.12-26,4-51.91,11.1-76.82,3.5-12.47,7.64-24.74,12.2-36.84s9.57-24,14.73-35.84c10.34-23.65,21.46-46.9,31.59-70.55,5.05-11.82,9.86-23.74,14.13-35.85a331.17,331.17,0,0,0,10.75-36.91c.65-3.13,1.38-6.25,1.9-9.41l.83-4.72.69-4.75.35-2.38.26-2.38.52-4.77.35-4.78c.12-1.59.24-3.19.27-4.78A171.73,171.73,0,0,0-329.86-545a170.66,170.66,0,0,0-10.95-36.65l-1.93-4.4c-.33-.73-.63-1.47-1-2.19l-1.07-2.15c-1.41-2.87-2.79-5.75-4.36-8.55s-3-5.67-4.68-8.41-3.19-5.56-4.95-8.24a298.66,298.66,0,0,0-48.75-59.29c-18.66-17.66-39.35-33.09-61-47s-44.27-26.23-67.13-38.1-46-23.29-68.75-35.37-45.25-24.86-66.46-39.61S-712-866.34-729-885.86a242.85,242.85,0,0,1-41-65.36q-3.76-8.91-6.87-18.1l-.8-2.28-.7-2.32-1.37-4.64-1.38-4.64c-.45-1.55-1-3.09-1.29-4.67-1.44-6.29-3.15-12.52-4.15-18.9l-.87-4.77-.43-2.38c-.16-.79-.28-1.58-.37-2.39l-1.24-9.6c-.18-1.6-.47-3.19-.56-4.8l-.39-4.82-.38-4.83c-.11-1.61-.3-3.21-.32-4.83-.17-6.44-.54-12.89-.33-19.34a329.62,329.62,0,0,1,2.6-38.58l1.28-9.59c.48-3.19,1.07-6.36,1.6-9.54l.82-4.77,1-4.73c.67-3.16,1.28-6.32,2-9.47,2.87-12.57,6.31-25,10.16-37.31s8.36-24.39,13.17-36.35,10.11-23.72,15.73-35.32a637.53,637.53,0,0,1,38-67.29,494.1,494.1,0,0,1,46.59-61.62c2.15-2.4,4.25-4.85,6.45-7.2l6.64-7,3.32-3.51,3.43-3.41,6.86-6.8c2.3-2.26,4.7-4.41,7-6.62s4.67-4.45,7.13-6.54c4.84-4.24,9.63-8.55,14.65-12.6,9.86-8.3,20.16-16.06,30.6-23.61s21.28-14.55,32.22-21.35A603.49,603.49,0,0,1-399.3-1540.42Z"/></g><path class="cls-5" d="M591.55,126.87a65.17,65.17,0,0,1,49,53.76,3.85,3.85,0,0,0,3.78,3.36h0a3.85,3.85,0,0,0,3.78-4.42,72.85,72.85,0,0,0-54.82-60.18,3.84,3.84,0,0,0-4.73,3.73v0A3.86,3.86,0,0,0,591.55,126.87Z"/><path class="cls-5" d="M512.11,180.7a65.12,65.12,0,0,1,54.82-55,3.79,3.79,0,0,0,3.29-3.72v-.17a3.77,3.77,0,0,0-4.34-3.7,72.8,72.8,0,0,0-61.34,61.51,3.77,3.77,0,0,0,3.7,4.34h.17A3.77,3.77,0,0,0,512.11,180.7Z"/><path class="cls-5" d="M639.41,205.39a65.18,65.18,0,0,1-47.85,48,3.87,3.87,0,0,0-3,3.74h0a3.86,3.86,0,0,0,4.77,3.74,72.92,72.92,0,0,0,53.54-53.69,3.86,3.86,0,0,0-3.73-4.78h0A3.85,3.85,0,0,0,639.41,205.39Z"/><path class="cls-5" d="M566.86,254.51a65.13,65.13,0,0,1-53.61-49.13,3.84,3.84,0,0,0-3.72-3h0a3.84,3.84,0,0,0-3.73,4.74,72.8,72.8,0,0,0,60,55,3.85,3.85,0,0,0,4.42-3.79h0A3.86,3.86,0,0,0,566.86,254.51Z"/><path class="cls-5" d="M579.38,144.17h0a3.06,3.06,0,0,1-3-3.06V104.34a3.06,3.06,0,0,1,3-3.06h0a3.06,3.06,0,0,1,3.06,3.06v36.77A3.06,3.06,0,0,1,579.38,144.17Z"/><path class="cls-5" d="M661.87,196.25H625.21a3.06,3.06,0,0,1-3.06-3.06h0a3.06,3.06,0,0,1,3.06-3.07h36.66a3.05,3.05,0,0,1,3,3.07h0A3.05,3.05,0,0,1,661.87,196.25Z"/><path class="cls-5" d="M527.45,196.25H490.79a3.06,3.06,0,0,1-3.06-3.06h0a3.06,3.06,0,0,1,3.06-3.07h36.66a3.05,3.05,0,0,1,3,3.07h0A3.05,3.05,0,0,1,527.45,196.25Z"/><path class="cls-5" d="M579.38,278.72h0a3.06,3.06,0,0,1-3-3.06V238.9a3.07,3.07,0,0,1,3-3.07h0a3.07,3.07,0,0,1,3.06,3.07v36.76A3.06,3.06,0,0,1,579.38,278.72Z"/><path class="cls-5" d="M250.67,123.68l21.54-6.42,9.76,6.42v12.13q8.63-9.06,15.3-12.41a35.09,35.09,0,0,1,16.14-3.49q12.38,0,25.87,8.09L325,156.74q-8.9-6.42-17.38-6.42-25.6,0-25.6,38.78v70.44h-31.3l-8.6-6.37Z"/><path class="cls-5" d="M387.8,23.94v115.5q18.78-19.53,42.57-19.53,27.4,0,45.63,20.51t18.22,50.77q0,31.38-18.36,51.89t-46.05,20.37q-23.51,0-42-18.14v14.23l-31.29,9.63-8.61-6.69,8.61-228.91L378.28,17.4Zm74.43,168.65q0-19.53-10.58-31.81-10.71-12.56-26.84-12.55-17.25,0-28.1,12.13T386,191.61q0,19.8,10.57,31.66,10.56,12.14,27.82,12.14a34.49,34.49,0,0,0,27-12.14Q462.23,211,462.23,192.59Z"/><path class="cls-5" d="M520,190.86a52.8,52.8,0,0,1,16.41-39.11q16.4-16.14,40-16.13t40.21,16.23q16.29,16.25,16.3,39.88,0,23.86-16.41,40t-40.53,16q-23.81,0-39.88-16.34Q520,215.28,520,190.86Zm25,.44q0,15.9,8.48,25.17,8.68,9.38,22.92,9.37t22.93-9.26q8.58-9.27,8.58-24.74t-8.58-24.73q-8.7-9.37-22.93-9.37-14,0-22.71,9.37T545,191.3Z"/><path class="cls-5" d="M807.87,191.9H698.43q1.41,18.87,12.23,30,10.82,11,27.75,11,13.17,0,21.8-6.29,8.46-6.28,19.28-23.27L809.29,220a119.35,119.35,0,0,1-14.59,20.21,77.68,77.68,0,0,1-16.46,13.84,66.29,66.29,0,0,1-19,7.94,92.56,92.56,0,0,1-22.11,2.51q-34.18,0-54.88-22-20.7-22.17-20.7-58.81,0-36.32,20.07-58.8,20.24-22.17,53.63-22.17,33.71,0,53.31,21.54Q808,145.68,808,183.57ZM771.65,163q-7.36-28.31-35.59-28.3a36.41,36.41,0,0,0-12.07,2,34.57,34.57,0,0,0-10.27,5.66,36,36,0,0,0-7.92,8.89,41.52,41.52,0,0,0-5,11.79Z"/><path class="cls-5" d="M944.88,52.85l23.21-15.41,9.17,6.21V260.14l-32.38,9.2-9.17-6.09,9.17-19.15q-20.85,20.45-47.2,20.44-31.35,0-52-23-20.55-23.43-20.54-58.49,0-34.29,20.54-57.24Q866,102.75,896.9,102.75q26.82,0,48,22ZM861.15,183.1q0,22,11.76,35.84,12.08,14,30.42,14,19.6,0,31.67-13.53,12.07-14,12.08-35.53T935,148.35q-12.07-13.68-31.36-13.68-18.18,0-30.42,13.83Q861.15,162.51,861.15,183.1Z"/><path class="cls-5" d="M1046,116.2v78.69q0,38.06,30,38.05t30-38.05V116.2l26.1-6.14,9.18,6.14v79.47q0,19.35-4.55,31.76A53.35,53.35,0,0,1,1121.4,249q-17.88,15.57-45.47,15.57T1030.61,249a54.21,54.21,0,0,1-15.52-21.54q-4.4-11.62-4.39-31.76V116.2l26-6.14Z"/><path class="cls-6" d="M583,120.45a65.16,65.16,0,0,1,49,53.76,3.85,3.85,0,0,0,3.78,3.36h0a3.85,3.85,0,0,0,3.79-4.42A72.86,72.86,0,0,0,584.69,113,3.84,3.84,0,0,0,580,116.7v0A3.86,3.86,0,0,0,583,120.45Z"/><path class="cls-6" d="M503.52,174.28a65.11,65.11,0,0,1,54.81-55,3.79,3.79,0,0,0,3.29-3.72v-.17a3.76,3.76,0,0,0-4.33-3.7A72.79,72.79,0,0,0,496,173.23a3.76,3.76,0,0,0,3.69,4.34h.17A3.78,3.78,0,0,0,503.52,174.28Z"/><path class="cls-6" d="M630.81,199A65.15,65.15,0,0,1,583,247a3.87,3.87,0,0,0-3,3.74h0a3.86,3.86,0,0,0,4.77,3.74,72.9,72.9,0,0,0,53.54-53.69,3.86,3.86,0,0,0-3.72-4.78h0A3.85,3.85,0,0,0,630.81,199Z"/><path class="cls-6" d="M558.27,248.09A65.14,65.14,0,0,1,504.65,199a3.84,3.84,0,0,0-3.71-3h0a3.84,3.84,0,0,0-3.72,4.74,72.81,72.81,0,0,0,60,55,3.86,3.86,0,0,0,4.42-3.8h0A3.86,3.86,0,0,0,558.27,248.09Z"/><rect class="cls-6" x="567.73" y="94.86" width="6.11" height="42.89" rx="3.06"/><rect class="cls-6" x="613.56" y="183.7" width="42.77" height="6.13" rx="3.06"/><path class="cls-6" d="M518.85,189.83H482.19a3.05,3.05,0,0,1-3.05-3.06h0a3.05,3.05,0,0,1,3.05-3.07h36.66a3.06,3.06,0,0,1,3.06,3.07h0A3.06,3.06,0,0,1,518.85,189.83Z"/><rect class="cls-6" x="567.73" y="229.41" width="6.11" height="42.89" rx="3.06"/><path class="cls-5" d="M177.12,206.81H85.18L61.25,259.12H26.34l-9.73-5.66L122.41,24.38l10.2,5.84,102.52,228.9H199.66L189.72,253Zm-13.21-30.55L132.05,103,98.67,176.26Z"/><path class="cls-6" d="M167.12,200.81H75.18L51.25,253.12H16.34L122.61,24.22l102.52,228.9H189.66Zm-13.21-30.55L122.05,97,88.67,170.26Z"/><path class="cls-6" d="M242.08,117.26h31.29v12.13Q282,120.33,288.68,117a35,35,0,0,1,16.13-3.49q12.38,0,25.88,8.09l-14.33,28.74q-8.91-6.42-17.39-6.42-25.61,0-25.6,38.78v70.44H242.08Z"/><path class="cls-6" d="M379.21,17.52V133q18.78-19.53,42.56-19.53,27.41,0,45.63,20.51t18.22,50.77q0,31.38-18.36,51.89t-46,20.37q-23.52,0-42-18.14v14.23l-31.3,9.63V27.15Zm74.42,168.65q0-19.53-10.57-31.81-10.72-12.56-26.85-12.55-17.25,0-28.1,12.13T377.4,185.19q0,19.8,10.57,31.66Q398.54,229,415.79,229a34.47,34.47,0,0,0,27-12.14Q453.63,204.58,453.63,186.17Z"/><path class="cls-6" d="M511.42,184.44a52.8,52.8,0,0,1,16.41-39.11q16.41-16.14,40-16.13T608,145.43q16.31,16.24,16.3,39.88,0,23.87-16.41,40t-40.53,16q-23.79,0-39.88-16.34Q511.42,208.86,511.42,184.44Zm25,.44q0,15.92,8.48,25.17,8.68,9.38,22.93,9.37t22.92-9.26q8.58-9.27,8.59-24.74t-8.59-24.73q-8.68-9.37-22.92-9.37-14,0-22.71,9.37T536.41,184.88Z"/><path class="cls-6" d="M798.4,185.58H689.09q1.41,18.84,12.22,30,10.8,11,27.72,11,13.14,0,21.76-6.29Q759.25,214,770.05,197l29.76,16.65a118.85,118.85,0,0,1-14.57,20.18,77.52,77.52,0,0,1-16.44,13.82,66,66,0,0,1-18.95,7.93,92.18,92.18,0,0,1-22.08,2.51q-34.14,0-54.81-22t-20.67-58.73q0-36.27,20.05-58.72,20.2-22.15,53.55-22.14,33.68,0,53.25,21.51,19.41,21.34,19.41,59.2Zm-36.18-28.89q-7.35-28.27-35.54-28.27a36.61,36.61,0,0,0-12.06,2A34.52,34.52,0,0,0,704.36,136a35.85,35.85,0,0,0-7.91,8.87,41.32,41.32,0,0,0-5,11.78Z"/><path class="cls-6" d="M935.23,46.7l32.33-9.19V253.73l-32.33,9.19V237.71q-20.84,20.41-47.14,20.42-31.32,0-52-22.93-20.51-23.4-20.51-58.41,0-34.24,20.51-57.16,20.35-23.09,51.21-23.08,26.78,0,47.92,22ZM851.61,176.79q0,22,11.74,35.8,12.06,14,30.38,14,19.57,0,31.63-13.51,12.06-14,12.06-35.49t-12.06-35.49Q913.3,128.43,894,128.42q-18.16,0-30.38,13.82Q851.6,156.22,851.61,176.79Z"/><path class="cls-6" d="M1036.2,110v78.59q0,38,29.91,38t29.91-38V110h35.23v79.38q0,19.32-4.54,31.72a53.28,53.28,0,0,1-15.19,21.51q-17.85,15.55-45.41,15.55-27.4,0-45.26-15.55a54.13,54.13,0,0,1-15.5-21.51q-4.38-11.62-4.39-31.72V110Z"/></svg>