<svg xmlns="http://www.w3.org/2000/svg" viewBox="0 0 259.45 263.95"><defs><style>.cls-1{fill:#248979;}</style></defs><title>Ativo 5</title><g id="Camada_2" data-name="Camada 2"><g id="Camada_1-2" data-name="Camada 1"><path class="cls-1" d="M227.17,189a.1.1,0,0,0,0,0l0-.09A1.67,1.67,0,0,0,226,188c-7.82-1.3-48.83-8.15-62.26-10.17-11.36-1.7-27,.37-32.94,5.64-6-5.27-21.58-7.34-32.94-5.64-13.43,2-54.44,8.87-62.26,10.17a1.62,1.62,0,0,0-1.17.86l0,.09a.1.1,0,0,0,0,0h0l-1.67,4.35c.1.14.38.29,1.19.2,8-1.36,49.7-8.37,63.36-10.43,12.46-1.88,27.33-.34,32.29,5.68.1.12.7.95,1.25,1s1.41-.94,1.54-1.1c5-5.94,19.61-7.41,32-5.54,13.65,2.06,55.31,9.07,63.35,10.43.81.09,1.1-.06,1.19-.2L227.17,189Z"/><path class="cls-1" d="M184.52,92,168.6,89.67a1.32,1.32,0,0,1-1.07-1.28V80.68a1.26,1.26,0,0,0-1.07-1.24l-10.18-1.06a1.26,1.26,0,0,1-1.07-1.24v-8a1.47,1.47,0,0,0-1.06-1.37l-19-4.4a35.1,35.1,0,0,0-8.75,0l-19,4.45a1.46,1.46,0,0,0-1,1.37v8a1.27,1.27,0,0,1-1.08,1.24L95,79.44A1.26,1.26,0,0,0,94,80.68v7.71a1.32,1.32,0,0,1-1.07,1.28L77,92a1.32,1.32,0,0,0-1.07,1.28V146.8a.89.89,0,0,0,1.07.93S92,145,97.07,144.21a62.06,62.06,0,0,1,9.07-.64c7.69,0,23.58,4.85,23.58,4.85a4.26,4.26,0,0,0,2.07,0s15.88-4.85,23.57-4.85a62.06,62.06,0,0,1,9.07.64c5,.76,20.1,3.52,20.1,3.52a.89.89,0,0,0,1.06-.93V93.23A1.31,1.31,0,0,0,184.52,92ZM92.87,134.79h-7v-12.6h7Zm0-15.54h-7v-12.6h7Zm9.42,15.54h-7v-12.6h7Zm0-15.54h-7v-12.6h7Zm20.33,19.19H115V100.16h7.65Zm0-40.9H115V83.75h7.65Zm11.95,40.9h-7.64V100.16h7.64Zm0-40.9h-7.64V83.75h7.64Zm12,40.9h-7.64V100.16h7.64Zm0-40.9h-7.64V83.75h7.64Zm19.64,37.25h-7v-12.6h7Zm0-15.54h-7v-12.6h7Zm9.42,15.54h-7v-12.6h7Zm0-15.54h-7v-12.6h7Z"/><path class="cls-1" d="M221.36,161.88h0l0-.11a1.46,1.46,0,0,0-.82-.66l-.67-.1c-1.39-.2-6-1-11.74-2-13.65-2.35-34.27-5.89-44.09-7.2a65.45,65.45,0,0,0-8.64-.54c-7.82,0-18.56,1.35-24.61,5.05-6-3.7-16.79-5.05-24.61-5.05a65.19,65.19,0,0,0-8.63.54c-9.82,1.31-30.45,4.85-44.1,7.2-5.78,1-10.35,1.78-11.74,2l-.66.1a1.38,1.38,0,0,0-.82.66l0,.11h0l-7.6,19.94c.05.27.3.58,1.37.41l2-.32c.47-.08,46.65-7.47,61.59-9.46a72.5,72.5,0,0,1,9.64-.63c15.7,0,19,3.76,21.52,5.42.93.61,1.28,1.34,2.07,1.34s1.14-.73,2.07-1.34c2.49-1.66,5.82-5.44,21.52-5.42a72.65,72.65,0,0,1,9.65.63c14.93,2,61.12,9.38,61.58,9.46l2,.32c1.06.17,1.32-.14,1.36-.41Z"/><path class="cls-1" d="M129.72,0A127.34,127.34,0,0,0,58.94,21.44a27.29,27.29,0,0,0-17.33-6.21,28,28,0,0,0-27.7,28.19,28.4,28.4,0,0,0,6.29,17.9A132.9,132.9,0,0,0,0,132c0,72.77,58.19,132,129.72,132s129.73-59.2,129.73-132S201.25,0,129.72,0ZM22.83,40.72H39.31V23.94a2.49,2.49,0,1,1,5,0V40.72H60.76a2.52,2.52,0,0,1,0,5H44.28V62.53a2.49,2.49,0,1,1-5,0V45.75H22.83a2.52,2.52,0,0,1,0-5ZM129.72,257C62.05,257,7,200.89,7,132A126,126,0,0,1,25.38,66.26a27.19,27.19,0,0,0,16.23,5.36,28,28,0,0,0,27.7-28.2,28.4,28.4,0,0,0-5.48-16.83A120.36,120.36,0,0,1,129.72,7c67.67,0,122.73,56.06,122.73,125S197.39,257,129.72,257Z"/></g></g></svg>