<svg xmlns="http://www.w3.org/2000/svg" viewBox="0 0 255.69 260.13"><defs><style>.cls-1{fill:none;stroke:#248979;stroke-width:7px;}.cls-1,.cls-3{stroke-miterlimit:10;}.cls-2{fill:#248979;}.cls-3{fill:#f7f7f7;stroke:#f7f7f7;stroke-width:2px;}</style></defs><title>Ativo 37</title><g id="Camada_2" data-name="Camada 2"><g id="Camada_1-2" data-name="Camada 1"><ellipse class="cls-1" cx="127.84" cy="130.06" rx="124.34" ry="126.56"/><ellipse class="cls-2" cx="41.04" cy="42.83" rx="27.29" ry="27.77"/><path class="cls-3" d="M42.69,41.15V23.63a1.48,1.48,0,0,0-1.47-1.49h0a1.48,1.48,0,0,0-1.46,1.49V41.15H22.55a1.48,1.48,0,0,0-1.47,1.49h0a1.48,1.48,0,0,0,1.47,1.49H39.76V61.66a1.48,1.48,0,0,0,1.46,1.49h0a1.48,1.48,0,0,0,1.47-1.49V44.13H59.9a1.48,1.48,0,0,0,1.47-1.49h0a1.48,1.48,0,0,0-1.47-1.49Z"/><path class="cls-2" d="M55.2,105.9v67.19a18.23,18.23,0,0,0,18.18,18.18H182.76A18.23,18.23,0,0,0,201,173.09V105.9c0-10-8.17-16.93-18.2-16.93H162.18v0h-9.75v0H73.38C63.37,89,55.2,95.89,55.2,105.9Zm43.63,22h19.49V108.46h19.49v19.48H157.3V152.3H137.81v19.49H118.33V152.3H98.83Z"/><path class="cls-2" d="M152.43,81.89A8.72,8.72,0,0,0,144,73.44H112.15a8.73,8.73,0,0,0-8.44,8.45V89H94V81.89A18.23,18.23,0,0,1,112.15,63.7H144a18.25,18.25,0,0,1,18.19,18.19v7h-9.75Z"/></g></g></svg>