<svg xmlns="http://www.w3.org/2000/svg" viewBox="0 0 209.5 165.32"><defs><style>.cls-1{fill:#939393;}</style></defs><title>Ativo 40</title><g id="Camada_2" data-name="Camada 2"><g id="Camada_1-2" data-name="Camada 1"><path class="cls-1" d="M58.73,80.81a57.11,57.11,0,0,1,6.36,2.4,16.24,16.24,0,0,1,4.65,2.12l55.54,36.78a14.78,14.78,0,0,1,4,21.13,16.32,16.32,0,0,1-22.08,3.83l-25-16.58a1.54,1.54,0,0,0-2.11.39h0a1.54,1.54,0,0,0,.4,2.17l24.94,16.52a19.61,19.61,0,0,0,14.25,3A19,19,0,0,0,131.9,145a17.59,17.59,0,0,0,3.39-10.36,1.62,1.62,0,0,0,0-.22l58-1.32c8.76-.2,16,6.44,16.24,14.82s-6.72,15.34-15.49,15.54l-83,1.89a16.75,16.75,0,0,1-2.66-.16,27.4,27.4,0,0,1-18-4.34L46,131.42a25.56,25.56,0,0,1-2.63-2,4.5,4.5,0,0,0-1-.51,14.12,14.12,0,0,0-3.51-.42q-.65,0-1.29,0H0V77.93H36.94A67.76,67.76,0,0,1,58.73,80.81Z"/><path class="cls-1" d="M153,26.08A25.92,25.92,0,1,0,179,52,26,26,0,0,0,153,26.08Zm0,44.5A18.58,18.58,0,1,1,171.65,52,18.61,18.61,0,0,1,153,70.58Z"/><path class="cls-1" d="M197.36,38.61,201,30.8l-5.13-8.87-8.33-.78c-.88-1-1.81-1.94-2.78-2.84l-.81-8.58L175,4.62l-7.59,3.46c-1.26-.41-2.55-.77-3.85-1.08l-5-7H148.3l-4.84,6.79c-1.3.27-2.61.6-3.88,1L131.75,4.2l-8.89,5.12-.79,8.3c-1,.88-1.94,1.81-2.83,2.78l-8.6.8-5.14,8.88L109,37.64c-.41,1.26-.77,2.55-1.08,3.85l-7,5V56.7l6.8,4.83c.27,1.3.6,2.6,1,3.86l-3.59,7.82,5.14,8.86,8.33.79c.88,1,1.81,1.92,2.77,2.83l.82,8.57L131,99.38l7.59-3.46c1.26.41,2.56.78,3.86,1.08l5,7h10.28l4.83-6.78c1.31-.28,2.6-.6,3.88-1l7.83,3.57,8.89-5.12.78-8.31c1-.88,1.94-1.8,2.85-2.76l8.6-.82,5.13-8.87-3.47-7.56c.41-1.27.77-2.54,1.07-3.84l7-5V47.29l-6.81-4.81Q197.95,40.52,197.36,38.61ZM153,85.1A33.11,33.11,0,1,1,186.22,52,33.15,33.15,0,0,1,153,85.1Z"/></g></g></svg>