<svg xmlns="http://www.w3.org/2000/svg" viewBox="0 0 32.61 32.52"><defs><style>.cls-1{fill:none;stroke:#fff;stroke-miterlimit:10;}</style></defs><title>Ativo 13</title><g id="Camada_2" data-name="Camada 2"><g id="Camada_1-2" data-name="Camada 1"><path class="cls-1" d="M8.77,29.13a8.1,8.1,0,0,0-5.38-5.37l-2.61,8Z"/><path class="cls-1" d="M25.38,1.9a12.7,12.7,0,0,1,3,2.29,12.64,12.64,0,0,1,2.29,3l.16.34.78-.78a1.57,1.57,0,0,0,.47-1.16c0-1.65-1.9-4-3.89-4.82a2.14,2.14,0,0,0-2.4.18L25,1.74Z"/><path class="cls-1" d="M27.09,5.5c-1.86-1.85-3.31-2.35-3.58-2.23L4.53,22.2A9.84,9.84,0,0,1,10.35,28l19-18.93C29.44,8.8,29,7.36,27.09,5.5Z"/></g></g></svg>