<svg xmlns="http://www.w3.org/2000/svg" viewBox="0 0 260.53 271.35"><defs><style>.cls-1{fill:none;stroke:#248979;stroke-miterlimit:10;stroke-width:7px;}.cls-2{fill:#248979;}.cls-3{fill:#fff;}</style></defs><title>Ativo 35</title><g id="Camada_2" data-name="Camada 2"><g id="Camada_1-2" data-name="Camada 1"><ellipse class="cls-1" cx="130.26" cy="135.67" rx="126.76" ry="132.17"/><ellipse class="cls-2" cx="41.83" cy="44.68" rx="27.82" ry="28.92"/><path class="cls-3" d="M34.22,57.72a8.1,8.1,0,0,0-5.38-5.37l-2.61,8Z"/><path class="cls-3" d="M50.83,30.49a12.22,12.22,0,0,1,3,2.29,12.44,12.44,0,0,1,2.3,3l.16.34.78-.78a1.56,1.56,0,0,0,.46-1.16c0-1.65-1.89-4-3.89-4.83a2.14,2.14,0,0,0-2.39.19l-.78.78Z"/><path class="cls-3" d="M52.54,34.09c-1.87-1.86-3.31-2.35-3.58-2.23L30,50.79a9.8,9.8,0,0,1,5.81,5.8l19-18.93C54.89,37.39,54.4,36,52.54,34.09Z"/><path class="cls-2" d="M202,88.67c-2.14,0-4.16,0-6.18.08V81.89h-2.25c-43.74,0-58.4,10.46-63.13,16.11-4.73-5.65-19.39-16.11-63.13-16.11H65.1v6.86c-2,0-4-.08-6.18-.08H53.81v99.22h5.11c54,0,65,12.37,66.54,14.67h10.13c1.7-2.41,12.94-14.67,66.45-14.67h5.11V88.67Zm-74.93,94.74c-7.55-5.55-23.34-12-56.37-12.43V87.56c46.25.6,55.19,13.27,56.37,15.33ZM190.23,171c-33,.44-48.83,6.88-56.38,12.43V102.92c1.29-2.26,10.47-14.76,56.38-15.36Z"/></g></g></svg>