<svg xmlns="http://www.w3.org/2000/svg" viewBox="0 0 264.36 273.89"><defs><style>.cls-1{fill:#248979;}.cls-2{fill:none;}</style></defs><title>Ativo 7</title><g id="Camada_2" data-name="Camada 2"><g id="Camada_1-2" data-name="Camada 1"><path class="cls-1" d="M106.72,92.54a3.09,3.09,0,0,1,.45-1.56l0,0V77.74L131.81,93.3,157,77.74V90.05a21.13,21.13,0,0,1,.4,2.49c0,4.7-11.34,8.5-25.33,8.5S106.72,97.23,106.72,92.54Zm64.07-26.48L132.12,53.42,93.32,66.25,132,90.55Zm-64.07,48.7a25.35,25.35,0,1,0,50.7,0V101s-8.61,6.46-25.34,6.46-25.36-6.38-25.36-6.38ZM137.22,162l-6-10.44-6,10.2,6.39,30.61ZM95.76,95.31,93.6,68.4,91.29,95.31,93.6,103ZM131,146.87c21.18,0,33,17.67,40.11,38.42l.17.54.17.18v.36l.18.55.17.18v.36l.17.54.18.18v.54l.17.54h.17v.54l.18.54,4.24,13.77a9.08,9.08,0,0,1-2.34,9.3,6.21,6.21,0,0,1-2.08.93c-27.79,7.46-51.5,7.46-83.16,1.15-3.09-.56-6.6-4-5.73-7.28l5.56-17.87c6.94-22.73,18.75-43.47,41.84-43.47Z"/><path class="cls-2" d="M55.68,36.22l.76-.75a1.55,1.55,0,0,0,.44-1.12,3.09,3.09,0,0,0-.21-1l-1.81,1.45a8.09,8.09,0,0,1,.67,1.07C55.58,36,55.64,36.11,55.68,36.22Z"/><path class="cls-2" d="M42.35,74.25a27.44,27.44,0,0,1-16.62-5.61A132.93,132.93,0,0,0,7,137C7,208.6,63.15,266.89,132.18,266.89S257.36,208.6,257.36,137,201.2,7,132.18,7A121.18,121.18,0,0,0,64.93,27.39,29.85,29.85,0,0,1,70.59,45C70.59,61.14,57.94,74.25,42.35,74.25Z"/><path class="cls-2" d="M54.21,37.69c.07-.17-.11-.81-.72-1.72A128.68,128.68,0,0,0,35.37,54.66,11.59,11.59,0,0,1,36,55.89Z"/><path class="cls-2" d="M34.15,56.23c-.29.37-.57.75-.85,1.12L34.44,57C34.36,56.72,34.25,56.47,34.15,56.23Z"/><path class="cls-1" d="M132.18,0A128.08,128.08,0,0,0,60.11,22.21a27.49,27.49,0,0,0-17.76-6.53C26.76,15.68,14.11,28.8,14.11,45a29.8,29.8,0,0,0,6.48,18.66A139.71,139.71,0,0,0,0,137c0,75.51,59.29,136.94,132.18,136.94S264.36,212.46,264.36,137,205.06,0,132.18,0ZM50.84,29.88a2.08,2.08,0,0,1,2.3-.17,6.89,6.89,0,0,1,3.53,3.66,3.09,3.09,0,0,1,.21,1,1.55,1.55,0,0,1-.44,1.12l-.76.75c0-.11-.1-.22-.15-.33a8.09,8.09,0,0,0-.67-1.07A13.24,13.24,0,0,0,53.32,33a12,12,0,0,0-2.91-2.2l-.32-.15Zm-2.23,2.23c.26-.11,1.65.36,3.44,2.14A11.87,11.87,0,0,1,53.49,36c.61.91.79,1.55.72,1.72L36,55.89a11.59,11.59,0,0,0-.58-1.23,9.38,9.38,0,0,0-5-4.35ZM29.27,51.82a7.71,7.71,0,0,1,4.88,4.41c.1.24.21.49.29.75l-1.14.37-6.54,2.13ZM132.18,266.89C63.15,266.89,7,208.6,7,137A132.93,132.93,0,0,1,25.73,68.64a27.44,27.44,0,0,0,16.62,5.61c15.59,0,28.24-13.11,28.24-29.28a29.85,29.85,0,0,0-5.66-17.58A121.18,121.18,0,0,1,132.18,7c69,0,125.18,58.29,125.18,130S201.2,266.89,132.18,266.89Z"/></g></g></svg>