<svg xmlns="http://www.w3.org/2000/svg" viewBox="0 0 134.87 178.74"><defs><style>.cls-1{fill:#939393;}</style></defs><title>Ativo 42</title><g id="Camada_2" data-name="Camada 2"><g id="Camada_1-2" data-name="Camada 1"><polygon class="cls-1" points="82.88 175.97 82.88 165.74 79.59 165.74 79.59 175.97 69.5 175.97 69.5 178.74 92.35 178.74 92.35 175.97 82.88 175.97"/><polygon class="cls-1" points="55.61 175.97 55.61 165.74 52.33 165.74 52.33 175.97 42.23 175.97 42.23 178.74 65.08 178.74 65.08 175.97 55.61 175.97"/><path class="cls-1" d="M15.24,74.78C6.45,80.47,0,92.47,0,106.26c0,14.11,6.45,26.25,15.83,31.79a27.5,27.5,0,0,1-.59-5.31Z"/><path class="cls-1" d="M134.87,106.26c0-14.07-6.24-26.2-15.23-31.75,0,21.84,0,56.57-.77,64C128.28,133.14,134.87,120.72,134.87,106.26Z"/><path class="cls-1" d="M33.08,141.24h0Z"/><path class="cls-1" d="M114.05,72.76s0,.87,0,.86C114,63.07,114,56,114,56c.2-12.91-9.35-24-22.42-28.46,10.64-1.42,19.65-14.56,3.35-27.5-.18.33-14.2,25.53-13.87,25.7l-25.87-.08L41.09.1c-16.17,12.83-8.11,25.77,2,27.51C29.88,32,19.63,43.23,19.63,56.39v76.35c0,1.81.92,3.58,1.27,5.31,0,0,.4-1,.43-1,2.92,14.32,17.5,24.23,34.53,24.23h23.4c16.47,0,30.3-10.93,33.85-24.49.06-.23.12-1.86.17-1.86h0C114,130.58,114.08,94.6,114.05,72.76Zm-81,68.48h0ZM76.72,97.49c0,2.94-8.78,6.82-8.78,6.82s-8.78-3.88-8.78-6.82V91.06c0-13.18,17.56-13.18,17.56,0ZM87.37,82.61a20,20,0,0,1-20-18.17,20,20,0,1,1,0-3.72,20,20,0,1,1,20,21.89Z"/><path class="cls-1" d="M99.47,19.3v0c-2.42,4.36-8.35,5.7-13.29,3L95,6.39C100.94,11.14,101.53,15.55,99.47,19.3Z"/><path class="cls-1" d="M36.81,19.3v0c2.42,4.36,8.35,5.7,13.29,3L41.31,6.39C35.33,11.14,34.74,15.55,36.81,19.3Z"/><path class="cls-1" d="M93.75,62.58a6.39,6.39,0,1,1-6.38-6.38A6.39,6.39,0,0,1,93.75,62.58Z"/><path class="cls-1" d="M89.49,62.49a2,2,0,1,1-2-2A2,2,0,0,1,89.49,62.49Z"/><path class="cls-1" d="M53.87,62.58a6.39,6.39,0,1,1-6.39-6.38A6.39,6.39,0,0,1,53.87,62.58Z"/><path class="cls-1" d="M49.61,62.49a2,2,0,1,1-2-2A2,2,0,0,1,49.61,62.49Z"/></g></g></svg>