<svg id="Camada_1" data-name="Camada 1" xmlns="http://www.w3.org/2000/svg" xmlns:xlink="http://www.w3.org/1999/xlink" viewBox="0 0 1920 145"><defs><linearGradient id="Gradiente_sem_nome_16" x1="-1289.44" y1="575.55" x2="88.72" y2="575.55" gradientUnits="userSpaceOnUse"><stop offset="0" stop-color="#70e166"/><stop offset="0.12" stop-color="#6cdd66"/><stop offset="0.25" stop-color="#62d066"/><stop offset="0.38" stop-color="#50bb66"/><stop offset="0.52" stop-color="#379e66"/><stop offset="0.53" stop-color="#359b66"/><stop offset="0.56" stop-color="#359162"/><stop offset="0.76" stop-color="#32544a"/><stop offset="0.92" stop-color="#312e3c"/><stop offset="0.99" stop-color="#302036"/></linearGradient><clipPath id="clip-path"><rect x="-635" y="-1099" width="1920" height="146" fill="none"/></clipPath><linearGradient id="Gradiente_sem_nome_29" x1="-452.5" y1="-1383.5" x2="1253.5" y2="322.5" gradientUnits="userSpaceOnUse"><stop offset="0" stop-color="#055e51"/><stop offset="0.53" stop-color="#359b66"/><stop offset="0.63" stop-color="#44ad66"/><stop offset="0.87" stop-color="#64d366"/><stop offset="1" stop-color="#70e166"/></linearGradient><clipPath id="clip-path-2"><rect x="-1940" y="1" width="1920" height="1080" fill="none"/></clipPath><clipPath id="clip-path-3"><path d="M-1166-107.28c-114.6,88.39-134.09,231.08-119,329.91,16.09,105.41,126.09,186,207.76,244,74.56,52.89,151.65,107.58,183.84,204.74,29,87.64-17.63,154.87-67,226.06-48.83,70.36-99.32,143.12-80,241.69C-1020,1243.82-934.67,1345.84-842,1376.4c33.62,11.1,72.77,14.62,115.72,11.18,132.24-10.6,300.52-87.2,454.42-212C-6.77,960.48,86.45,681.67,88.7,421.72c1.72-198.29-108.31-383.63-331.08-497-188.66-96-376.25-182.1-545.06-158.53l-.29-2.09.28,2.09C-978-216.59-1088-167.45-1166-107.28Z" fill="url(#Gradiente_sem_nome_16)"/></clipPath><linearGradient id="Gradiente_sem_nome_16-3" x1="-1545.25" y1="-258.75" x2="147.25" y2="1433.75" xlink:href="#Gradiente_sem_nome_16"/><clipPath id="clip-path-4"><rect x="1" width="1920" height="146" fill="none"/></clipPath><linearGradient id="Gradiente_sem_nome_29-2" x1="183.5" y1="-284.5" x2="1889.5" y2="1421.5" xlink:href="#Gradiente_sem_nome_29"/><linearGradient id="Gradiente_sem_nome_29-3" x1="1911.87" y1="-443.75" x2="2769.88" y2="414.26" gradientTransform="translate(2077.98 -1897.75) rotate(90)" xlink:href="#Gradiente_sem_nome_29"/></defs><title>background_nav</title><g clip-path="url(#clip-path)"><rect x="-636" y="-1200" width="2073" height="1339" fill="url(#Gradiente_sem_nome_29)"/><path d="M278.7-1371.42a603.43,603.43,0,0,0-140.85,62.74c-10.94,6.8-21.72,13.87-32.2,21.37S84.92-1272,75.07-1263.7c-5,4.06-9.8,8.37-14.64,12.62-2.45,2.09-4.74,4.35-7.12,6.53s-4.73,4.37-7,6.63l-6.86,6.8L36-1227.71l-3.32,3.51-6.64,7c-2.2,2.36-4.29,4.81-6.44,7.21a488.54,488.54,0,0,0-46.5,61.64A637.75,637.75,0,0,0-64.76-1081c-5.6,11.6-10.88,23.36-15.66,35.32s-9.16,24.08-13.09,36.34-7.23,24.72-10.08,37.28c-.71,3.14-1.31,6.3-2,9.45l-1,4.73-.81,4.76c-.52,3.18-1.11,6.35-1.58,9.53l-1.26,9.57a330.53,330.53,0,0,0-2.53,38.51c-.2,6.43.19,12.86.38,19.29,0,1.61.22,3.21.33,4.82l.4,4.8.4,4.81c.09,1.61.39,3.2.57,4.79l1.27,9.57c.09.8.21,1.59.37,2.38l.44,2.37.88,4.75c1,6.35,2.74,12.56,4.2,18.82.33,1.57.83,3.1,1.29,4.65l1.39,4.62,1.38,4.62.7,2.3.8,2.28q3.12,9.12,6.9,18a242,242,0,0,0,41,64.92c16.94,19.36,36.89,35.9,58,50.52s43.64,27.29,66.41,39.3,45.93,23.34,68.84,35.16,45.62,24.13,67.41,38,42.64,29.31,61.49,47.05A301.33,301.33,0,0,1,321.54-448c1.78,2.7,3.35,5.53,5,8.3s3.18,5.64,4.74,8.47,3,5.74,4.45,8.65l1.08,2.18c.36.73.67,1.48,1,2.22l2,4.45A174,174,0,0,1,351-376.54a174.13,174.13,0,0,1,2.68,38.81c0,1.63-.13,3.25-.25,4.86l-.35,4.86-.51,4.84-.26,2.42-.34,2.41-.69,4.82-.83,4.79c-.52,3.21-1.25,6.36-1.89,9.54a334.07,334.07,0,0,1-10.75,37.31c-4.26,12.21-9.07,24.21-14.1,36.1-10.1,23.77-21.16,47.06-31.38,70.67-5.12,11.8-10,23.68-14.56,35.71s-8.56,24.2-12,36.55C258.9-58.18,254.91-32.66,255.1-7.11A231,231,0,0,0,268.59,68a319.38,319.38,0,0,0,34.5,68.38,378.62,378.62,0,0,0,48.67,59.3,362.8,362.8,0,0,0,59.77,48c21.55,13.75,44.72,25.11,69.11,32.65A219.82,219.82,0,0,0,518,284.46a244.89,244.89,0,0,0,38.2,1.74c25.54-.82,51-5.06,75.71-11.6a505.44,505.44,0,0,0,72.52-25.47,685.44,685.44,0,0,0,68.7-34.74c44.52-25.66,86.59-55.53,126.27-88.21a1148.92,1148.92,0,0,0,112-105.95,1220.23,1220.23,0,0,0,97.47-119.51,1152.11,1152.11,0,0,0,81.23-131.08,1018.14,1018.14,0,0,0,61.85-141.21A854.75,854.75,0,0,0,1289.55-521a721.06,721.06,0,0,0,7.61-153.8A650.2,650.2,0,0,0,1270-826.29c-2-6.13-3.81-12.29-6-18.34s-4.1-12.2-6.47-18.18l-3.42-9c-.58-1.5-1.12-3-1.73-4.5l-1.85-4.45-3.69-8.92-1.86-4.45-2-4.4A686.09,686.09,0,0,0,1208-967.26a761.5,761.5,0,0,0-91-124.45,871.31,871.31,0,0,0-113-105.11,955.36,955.36,0,0,0-129-84.74,979.42,979.42,0,0,0-140.87-63.25,906.35,906.35,0,0,0-149.24-39.57c-50.77-8.8-102.39-13-153.92-11.45S328-1386.53,278.7-1371.42Zm0,0c49.3-15.14,100.72-22.81,152.22-24.5s103.17,2.58,154,11.35a915.17,915.17,0,0,1,149.36,39.36,979.7,979.7,0,0,1,141,63,964.88,964.88,0,0,1,129.4,84.47,874.34,874.34,0,0,1,113.45,104.93,763.56,763.56,0,0,1,91.6,124.48,689.29,689.29,0,0,1,35.39,68.82l2,4.41,1.87,4.46,3.73,8.93,1.87,4.47c.62,1.49,1.17,3,1.75,4.51l3.46,9c2.4,6,4.4,12.14,6.55,18.22s4.08,12.25,6.06,18.4A653.46,653.46,0,0,1,1300.13-675a724.26,724.26,0,0,1-7.18,154.5,856.79,856.79,0,0,1-37.35,150.17,1010.07,1010.07,0,0,1-61.73,141.94,1157.32,1157.32,0,0,1-81.3,131.74A1213.47,1213.47,0,0,1,1014.9,23.51,1156.53,1156.53,0,0,1,902.47,130c-39.85,32.86-82.1,62.91-126.9,88.75a689.12,689.12,0,0,1-69.23,34.95,510.53,510.53,0,0,1-73.24,25.67c-25.05,6.6-50.81,10.89-76.81,11.71a249.9,249.9,0,0,1-38.95-1.8,224.48,224.48,0,0,1-38.12-8.36c-24.88-7.69-48.39-19.29-70.23-33.28a366.85,366.85,0,0,1-60.45-48.74,383.07,383.07,0,0,1-49.15-60.1,324.48,324.48,0,0,1-34.85-69.39,241.26,241.26,0,0,1-10-37.66A230.42,230.42,0,0,1,251-7.07c-.12-26,4-51.91,11.1-76.82,3.5-12.47,7.64-24.74,12.2-36.84s9.57-24,14.73-35.84c10.34-23.65,21.46-46.9,31.59-70.55,5.05-11.82,9.86-23.74,14.13-35.85a331.17,331.17,0,0,0,10.75-36.91c.65-3.13,1.38-6.25,1.9-9.41l.83-4.72.69-4.75.35-2.38.26-2.38.52-4.77.35-4.78c.12-1.59.24-3.19.27-4.78A171.73,171.73,0,0,0,348.14-376a170.66,170.66,0,0,0-10.95-36.65l-1.93-4.4c-.33-.73-.63-1.47-1-2.19l-1.07-2.15c-1.41-2.87-2.79-5.75-4.36-8.55s-3-5.67-4.68-8.41-3.19-5.56-4.95-8.24a298.66,298.66,0,0,0-48.75-59.29c-18.66-17.66-39.35-33.09-61-47s-44.27-26.23-67.13-38.1-46-23.29-68.75-35.37S28.36-651.18,7.15-665.93-34-697.34-51-716.86a242.85,242.85,0,0,1-41-65.36q-3.76-8.91-6.87-18.1l-.8-2.28-.7-2.32-1.37-4.64-1.38-4.64c-.45-1.55-1-3.09-1.29-4.67-1.44-6.29-3.15-12.52-4.15-18.9l-.87-4.77-.43-2.38c-.16-.79-.28-1.58-.37-2.39l-1.24-9.6c-.18-1.6-.47-3.19-.56-4.8l-.39-4.82-.38-4.83c-.11-1.61-.3-3.21-.32-4.83-.17-6.44-.54-12.89-.33-19.34a329.62,329.62,0,0,1,2.6-38.58l1.28-9.59c.48-3.19,1.07-6.36,1.6-9.54l.82-4.77,1-4.73c.67-3.16,1.28-6.32,2-9.47,2.87-12.57,6.31-25,10.16-37.31s8.36-24.39,13.17-36.35,10.11-23.72,15.73-35.32a637.53,637.53,0,0,1,38-67.29,494.1,494.1,0,0,1,46.59-61.62c2.15-2.4,4.25-4.85,6.45-7.2l6.64-7,3.32-3.51,3.43-3.41,6.86-6.8c2.3-2.26,4.7-4.41,7.05-6.62s4.66-4.45,7.12-6.54c4.84-4.24,9.63-8.55,14.65-12.6,9.86-8.3,20.16-16.06,30.6-23.61s21.28-14.55,32.22-21.35A603.49,603.49,0,0,1,278.7-1371.42Z" fill="#d1d1ed"/></g><g clip-path="url(#clip-path-2)"><path d="M-975.56-295.19c-42.58,14.33-206.64,69.57-304.92,235.06-20.9,35.2-119.19,200.7-60.67,357C-1263.73,503.74-994.51,473.54-881.53,671c97.15,169.76-128.94,314.44-44.74,514.56,43.95,104.47,152.62,196.66,256.71,211.69C-344.7,1444.14,275.73,788.59,64.91,226-88.56-183.52-632.58-410.67-975.56-295.19Z" fill="#d9d9f4"/><path d="M-1166-107.28c-114.6,88.39-134.09,231.08-119,329.91,16.09,105.41,126.09,186,207.76,244,74.56,52.89,151.65,107.58,183.84,204.74,29,87.64-17.63,154.87-67,226.06-48.83,70.36-99.32,143.12-80,241.69C-1020,1243.82-934.67,1345.84-842,1376.4c33.62,11.1,72.77,14.62,115.72,11.18,132.24-10.6,300.52-87.2,454.42-212C-6.77,960.48,86.45,681.67,88.7,421.72c1.72-198.29-108.31-383.63-331.08-497-188.66-96-376.25-182.1-545.06-158.53l-.29-2.09.28,2.09C-978-216.59-1088-167.45-1166-107.28Z" fill="url(#Gradiente_sem_nome_16)"/><g clip-path="url(#clip-path-3)"><rect x="-1533" y="-271" width="1668" height="1717" fill="url(#Gradiente_sem_nome_16-3)"/></g></g><g clip-path="url(#clip-path-4)"><path d="M962.44-308.39C919.86-294.1,755.8-239,657.52-74c-20.9,35.11-119.19,200.15-60.67,356,77.42,206.27,346.64,176.15,459.62,373,97.15,169.3-128.94,313.58-44.74,513.14,44,104.18,152.62,196.12,256.71,211.11,324.86,46.78,945.29-606.94,734.47-1168C1849.44-197,1305.42-423.55,962.44-308.39Z" fill="#d9d9f4"/><rect y="-101" width="2073" height="1339" fill="url(#Gradiente_sem_nome_29-2)"/><ellipse cx="2092.72" cy="443.12" rx="615.22" ry="598.07" transform="translate(1519.47 2504) rotate(-86.41)" opacity="0.5" fill="url(#Gradiente_sem_nome_29-3)"/><path d="M914.7-272.42a603.43,603.43,0,0,0-140.85,62.74c-10.94,6.8-21.72,13.87-32.2,21.37S720.92-173,711.07-164.7c-5,4.06-9.8,8.37-14.64,12.62-2.45,2.09-4.74,4.35-7.12,6.53s-4.73,4.37-7,6.63l-6.86,6.8L672-128.71l-3.32,3.51-6.64,7c-2.2,2.36-4.29,4.81-6.44,7.21a488.54,488.54,0,0,0-46.5,61.64A637.75,637.75,0,0,0,571.24,18c-5.6,11.6-10.88,23.36-15.66,35.32s-9.16,24.08-13.09,36.34-7.23,24.72-10.08,37.28c-.71,3.14-1.31,6.3-2,9.45l-1,4.73-.81,4.76c-.52,3.18-1.11,6.35-1.58,9.53L525.83,165a330.53,330.53,0,0,0-2.53,38.51c-.2,6.43.19,12.86.38,19.29,0,1.61.22,3.21.33,4.82l.4,4.8.4,4.81c.09,1.61.39,3.2.57,4.79l1.27,9.57c.09.8.21,1.59.37,2.38l.44,2.37.88,4.75c1,6.35,2.74,12.56,4.2,18.82.33,1.57.83,3.1,1.29,4.65l1.39,4.62,1.38,4.62.7,2.3.8,2.28q3.12,9.12,6.9,18a242,242,0,0,0,41,64.92c16.94,19.36,36.89,35.9,58,50.52s43.64,27.29,66.41,39.3,45.93,23.34,68.84,35.16,45.62,24.13,67.41,38,42.64,29.31,61.49,47A301.33,301.33,0,0,1,957.54,651c1.78,2.7,3.35,5.53,5,8.3s3.18,5.64,4.74,8.47,3,5.74,4.45,8.65l1.08,2.18c.36.73.67,1.48,1,2.22l2,4.45a173.81,173.81,0,0,1,13.92,76c0,1.63-.13,3.25-.25,4.86l-.35,4.86-.51,4.84-.26,2.42-.34,2.41-.69,4.82-.83,4.79c-.52,3.21-1.25,6.36-1.89,9.54a334.07,334.07,0,0,1-10.75,37.31c-4.26,12.21-9.07,24.21-14.1,36.1-10.1,23.77-21.16,47.06-31.38,70.67-5.12,11.8-10,23.68-14.56,35.71s-8.56,24.2-12,36.55c-6.92,24.67-10.91,50.19-10.72,75.74A230.68,230.68,0,0,0,904.59,1167a319.38,319.38,0,0,0,34.5,68.38,378.62,378.62,0,0,0,48.67,59.3,362.8,362.8,0,0,0,59.77,48c21.55,13.75,44.72,25.11,69.11,32.65a219.82,219.82,0,0,0,37.31,8.16,244.89,244.89,0,0,0,38.2,1.74c25.54-.82,50.95-5.06,75.71-11.6a505.44,505.44,0,0,0,72.52-25.47,685.44,685.44,0,0,0,68.7-34.74c44.52-25.66,86.59-55.53,126.27-88.21a1148.92,1148.92,0,0,0,112-106,1220.23,1220.23,0,0,0,97.47-119.51,1152.11,1152.11,0,0,0,81.23-131.08,1018.14,1018.14,0,0,0,61.85-141.21A854.75,854.75,0,0,0,1925.55,578a721.06,721.06,0,0,0,7.61-153.8A650.2,650.2,0,0,0,1906,272.71c-2-6.13-3.81-12.29-6-18.34s-4.1-12.2-6.47-18.18l-3.42-9c-.58-1.5-1.12-3-1.73-4.5l-1.85-4.45-3.69-8.92-1.86-4.45-2-4.4A686.09,686.09,0,0,0,1844,131.74,761.5,761.5,0,0,0,1753,7.29,871.31,871.31,0,0,0,1640-97.82a955.36,955.36,0,0,0-129-84.74,979.42,979.42,0,0,0-140.87-63.25,906.35,906.35,0,0,0-149.24-39.57c-50.77-8.8-102.39-13-153.92-11.45S964-287.53,914.7-272.42Zm0,0c49.3-15.14,100.72-22.81,152.22-24.5s103.17,2.58,153.95,11.35a915.17,915.17,0,0,1,149.36,39.36,979.7,979.7,0,0,1,141,63,964.88,964.88,0,0,1,129.4,84.47A874.34,874.34,0,0,1,1754.13,6.23a763.56,763.56,0,0,1,91.6,124.48,689.29,689.29,0,0,1,35.39,68.82l2,4.41,1.87,4.46,3.73,8.93,1.87,4.47c.62,1.49,1.17,3,1.75,4.51l3.46,9c2.4,6,4.4,12.14,6.55,18.22s4.08,12.25,6.06,18.4A653.46,653.46,0,0,1,1936.13,424a724.26,724.26,0,0,1-7.18,154.5,856.79,856.79,0,0,1-37.35,150.17,1010.07,1010.07,0,0,1-61.73,141.94,1157.32,1157.32,0,0,1-81.3,131.74,1213.47,1213.47,0,0,1-97.67,120.12A1156.53,1156.53,0,0,1,1538.47,1229c-39.85,32.86-82.1,62.91-126.9,88.75a690,690,0,0,1-69.22,35,511.08,511.08,0,0,1-73.25,25.67c-25,6.6-50.81,10.89-76.81,11.71a249.9,249.9,0,0,1-39-1.8,224.48,224.48,0,0,1-38.12-8.36c-24.88-7.69-48.39-19.29-70.23-33.28a366.85,366.85,0,0,1-60.45-48.74,383.07,383.07,0,0,1-49.15-60.1,324.48,324.48,0,0,1-34.85-69.39,241.26,241.26,0,0,1-10-37.66,230.42,230.42,0,0,1-3.57-38.79c-.12-26,4-51.91,11.1-76.82,3.5-12.47,7.64-24.74,12.2-36.84s9.57-24,14.73-35.84c10.34-23.65,21.46-46.9,31.59-70.55,5-11.82,9.86-23.74,14.13-35.85a331.17,331.17,0,0,0,10.75-36.91c.65-3.13,1.38-6.25,1.9-9.41l.83-4.72.69-4.75.35-2.38.26-2.38.52-4.77.35-4.78c.12-1.59.24-3.19.27-4.78a170.81,170.81,0,0,0-13.47-74.81l-1.93-4.4c-.33-.73-.63-1.47-1-2.19l-1.07-2.15c-1.41-2.87-2.79-5.75-4.36-8.55s-3-5.67-4.68-8.41-3.19-5.56-4.95-8.24a298.66,298.66,0,0,0-48.75-59.29c-18.66-17.66-39.35-33.09-61-47s-44.27-26.23-67.13-38.1-46-23.29-68.75-35.37-45.25-24.86-66.46-39.61S602,401.66,585,382.14a242.85,242.85,0,0,1-41-65.36q-3.76-8.91-6.87-18.1l-.8-2.28-.7-2.32-1.37-4.64-1.38-4.64c-.45-1.55-1-3.09-1.29-4.67-1.44-6.29-3.15-12.52-4.15-18.9l-.87-4.77-.43-2.38c-.16-.79-.28-1.58-.37-2.39l-1.24-9.6c-.18-1.6-.47-3.19-.56-4.8l-.39-4.82-.38-4.83c-.11-1.61-.3-3.21-.32-4.83-.17-6.44-.54-12.89-.33-19.34a329.62,329.62,0,0,1,2.6-38.58l1.28-9.59c.48-3.19,1.07-6.36,1.6-9.54l.82-4.77,1-4.73c.67-3.16,1.28-6.32,2-9.47,2.87-12.57,6.31-25,10.16-37.31s8.36-24.39,13.17-36.35,10.11-23.72,15.73-35.32a637.53,637.53,0,0,1,38-67.29,494.1,494.1,0,0,1,46.59-61.62c2.15-2.4,4.25-4.85,6.45-7.2l6.64-7,3.32-3.51,3.43-3.41,6.86-6.8c2.3-2.26,4.7-4.41,7-6.62s4.67-4.45,7.13-6.54c4.84-4.24,9.63-8.55,14.65-12.6,9.86-8.3,20.16-16.06,30.6-23.61S762.86-203,773.8-209.76A603.49,603.49,0,0,1,914.7-272.42Z" fill="#d1d1ed"/></g></svg>