<svg xmlns="http://www.w3.org/2000/svg" viewBox="0 0 260.53 270.55"><defs><style>.cls-1{fill:none;stroke:#248979;stroke-width:7px;}.cls-1,.cls-3{stroke-miterlimit:10;}.cls-2{fill:#248979;}.cls-3{fill:#f7f7f7;stroke:#f7f7f7;stroke-width:2px;}</style></defs><title>Ativo 40</title><g id="Camada_2" data-name="Camada 2"><g id="Camada_1-2" data-name="Camada 1"><ellipse class="cls-1" cx="130.26" cy="135.27" rx="126.76" ry="131.77"/><ellipse class="cls-2" cx="41.77" cy="44.45" rx="27.82" ry="28.92"/><path class="cls-3" d="M43.45,42.7V24.46A1.52,1.52,0,0,0,42,22.91h0a1.52,1.52,0,0,0-1.5,1.55V42.7H22.92a1.53,1.53,0,0,0-1.5,1.55h0a1.53,1.53,0,0,0,1.5,1.56H40.46V64.05A1.52,1.52,0,0,0,42,65.6h0a1.52,1.52,0,0,0,1.49-1.55V45.81H61a1.52,1.52,0,0,0,1.49-1.56h0A1.52,1.52,0,0,0,61,42.7Z"/><polygon class="cls-2" points="145.13 206.62 145.13 198.21 142.43 198.21 142.43 206.62 134.13 206.62 134.13 208.9 152.91 208.9 152.91 206.62 145.13 206.62"/><polygon class="cls-2" points="122.71 206.62 122.71 198.21 120.01 198.21 120.01 206.62 111.71 206.62 111.71 208.9 130.49 208.9 130.49 206.62 122.71 206.62"/><path class="cls-2" d="M89.52,123.44C82.3,128.11,77,138,77,149.31c0,11.6,5.3,21.58,13,26.13a22.4,22.4,0,0,1-.49-4.36Z"/><path class="cls-2" d="M187.87,149.31c0-11.56-5.13-21.53-12.52-26.1,0,18,0,46.5-.63,52.58C182.45,171.41,187.87,161.21,187.87,149.31Z"/><path class="cls-2" d="M104.19,178.07h0Z"/><path class="cls-2" d="M170.75,121.78s0,.71,0,.7c0-8.67,0-14.52,0-14.52.17-10.61-7.69-19.75-18.43-23.39C161,83.4,168.42,72.6,155,62c-.15.27-11.68,21-11.4,21.13L122.36,83,110.78,62c-13.3,10.55-6.67,21.19,1.65,22.62-10.87,3.57-19.3,12.84-19.3,23.66v62.76c0,1.49.76,2.95,1,4.36,0,0,.34-.79.36-.77,2.4,11.77,14.39,19.91,28.38,19.91h19.24c13.54,0,24.91-9,27.83-20.13.05-.19.1-1.53.14-1.53h0C170.69,169.31,170.77,139.72,170.75,121.78Zm-66.56,56.29h0Zm35.88-36c0,2.41-7.22,5.6-7.22,5.6s-7.23-3.19-7.23-5.6v-5.29c0-10.83,14.45-10.83,14.45,0Zm8.74-12.23a16.47,16.47,0,0,1-16.39-14.94,16.47,16.47,0,1,1,0-3.06,16.47,16.47,0,1,1,16.39,18Z"/><path class="cls-2" d="M158.76,77.82v0c-2,3.58-6.87,4.69-10.93,2.48l7.23-13.11C160,71.12,160.46,74.75,158.76,77.82Z"/><path class="cls-2" d="M107.25,77.82v0c2,3.58,6.87,4.69,10.93,2.48L111,67.21C106,71.12,105.55,74.75,107.25,77.82Z"/><path class="cls-2" d="M154.07,113.41a5.25,5.25,0,1,1-5.26-5.25A5.26,5.26,0,0,1,154.07,113.41Z"/><path class="cls-2" d="M150.56,113.33a1.67,1.67,0,1,1-3.33,0,1.67,1.67,0,0,1,3.33,0Z"/><path class="cls-2" d="M121.28,113.41a5.25,5.25,0,1,1-5.25-5.25A5.25,5.25,0,0,1,121.28,113.41Z"/><path class="cls-2" d="M117.77,113.33a1.67,1.67,0,1,1-1.66-1.66A1.66,1.66,0,0,1,117.77,113.33Z"/></g></g></svg>