<svg xmlns="http://www.w3.org/2000/svg" viewBox="0 0 259.45 263.95"><defs><style>.cls-1{fill:#248979;}</style></defs><title>Ativo 6</title><g id="Camada_2" data-name="Camada 2"><g id="Camada_1-2" data-name="Camada 1"><path class="cls-1" d="M125.41,169c-4.06,0-7.35,3.68-7.35,8.22v37.31h14.7V177.21C132.76,172.67,129.47,169,125.41,169Z"/><path class="cls-1" d="M104.31,182.39c-4.07,0-7.35,3.68-7.35,8.22v23.91h14.7V190.61C111.66,186.07,108.36,182.39,104.31,182.39Z"/><path class="cls-1" d="M146.54,156.54c-4,0-7.34,3.69-7.34,8.24v49.74h14.69V164.78C153.89,160.23,150.6,156.54,146.54,156.54Z"/><path class="cls-1" d="M167.65,142.11c-4.06,0-7.35,3.68-7.35,8.23v64.18H175V150.34C175,145.79,171.7,142.11,167.65,142.11Z"/><path class="cls-1" d="M145.24,154.85a5.79,5.79,0,0,0,2.5-7.27l-7.55-19.19a5.25,5.25,0,0,0-2.35-2.72,3.29,3.29,0,0,0-.44-.28l-5.79-3.26,9.76-15.32,3.69,9.28a4.28,4.28,0,0,0,1.92,2.22,3.9,3.9,0,0,0,1.77.64l16.38,1.54a4.48,4.48,0,0,0,4.67-4.37,4.68,4.68,0,0,0-3.9-5.21l-14.59-1.37-4.89-12.29a18.8,18.8,0,0,0-.35-11.1c5.29,1.88,11.2-.57,14-6.2,3.23-6.45,1.2-14.61-4.57-18.24s-13-1.32-16.28,5.12a14.79,14.79,0,0,0-.7,11.46,10.84,10.84,0,0,0-4.26-.55,3.89,3.89,0,0,0-1.6-.22l-25.57,2a4,4,0,0,0-2.53,1.18,4.65,4.65,0,0,0-1.15,1.66L96.55,99.1a5.06,5.06,0,0,0,2.08,6.39,4.12,4.12,0,0,0,5.71-2.31l5.86-14.26L121.44,88l0,0-24,36.35L81.67,122c-2.69-.4-5.18,1.71-5.53,4.75a5.42,5.42,0,0,0,4.24,6.2l18.55,2.85a4.69,4.69,0,0,0,4.46-2,3.37,3.37,0,0,0,.29-.35l7.72-10,20.47,11.14,6.86,17.41A4.71,4.71,0,0,0,145.24,154.85Z"/><path class="cls-1" d="M84.33,194.82c-3.17,0-5.74,2.25-5.74,5v14.66H90.07V199.86C90.07,197.07,87.5,194.82,84.33,194.82Z"/><path class="cls-1" d="M129.72,0A127.34,127.34,0,0,0,58.94,21.44a27.29,27.29,0,0,0-17.33-6.21,28,28,0,0,0-27.7,28.19,28.4,28.4,0,0,0,6.29,17.9A132.9,132.9,0,0,0,0,132c0,72.77,58.19,132,129.72,132s129.73-59.2,129.73-132S201.25,0,129.72,0ZM22.83,40.72H39.31V23.94a2.49,2.49,0,1,1,5,0V40.72H60.76a2.52,2.52,0,0,1,0,5H44.28V62.53a2.49,2.49,0,1,1-5,0V45.75H22.83a2.52,2.52,0,0,1,0-5ZM129.72,257C62.05,257,7,200.89,7,132A126,126,0,0,1,25.38,66.26a27.19,27.19,0,0,0,16.23,5.36,28,28,0,0,0,27.7-28.2,28.4,28.4,0,0,0-5.48-16.83A120.36,120.36,0,0,1,129.72,7c67.67,0,122.73,56.06,122.73,125S197.39,257,129.72,257Z"/></g></g></svg>