<svg xmlns="http://www.w3.org/2000/svg" viewBox="0 0 259.45 263.95"><defs><style>.cls-1{fill:#248979;}.cls-2{fill:none;}</style></defs><title>Ativo 4</title><g id="Camada_2" data-name="Camada 2"><g id="Camada_1-2" data-name="Camada 1"><path class="cls-1" d="M104.75,89.22a2.88,2.88,0,0,1,.45-1.5l0,0V75l24.21,15,24.7-15V86.83a21.19,21.19,0,0,1,.39,2.39c0,4.53-11.12,8.19-24.85,8.19S104.75,93.74,104.75,89.22ZM167.6,63.73,129.67,51.56,91.61,63.91l37.93,23.4Zm-62.85,46.89a24.87,24.87,0,0,0,49.73,0V97.41s-8.45,6.21-24.85,6.21-24.88-6.14-24.88-6.14Zm29.92,45.46L128.82,146,123,155.84l6.27,29.47ZM94,91.89,91.88,66,89.62,91.89l2.26,7.41Zm34.56,49.64c20.77,0,32.35,17,39.34,37l.17.52.17.17v.35l.17.53.17.17v.35l.17.52.17.17v.52l.17.52h.17v.52l.17.52,4.16,13.25a8.61,8.61,0,0,1-2.3,9,6.09,6.09,0,0,1-2,.9c-27.26,7.18-50.53,7.18-81.58,1.1-3-.53-6.47-3.88-5.62-7l5.45-17.2c6.81-21.88,18.4-41.85,41.05-41.85Z"/><path class="cls-2" d="M44.28,23.94a2.49,2.49,0,1,0-5,0v13.5c1.62-1.61,3.27-3.17,5-4.68Z"/><path class="cls-2" d="M41.79,65.05a2.5,2.5,0,0,0,2.49-2.52V45.75H60.76a2.52,2.52,0,0,0,0-5H46q-3.47,3.3-6.66,6.84v15A2.5,2.5,0,0,0,41.79,65.05Z"/><path class="cls-2" d="M41.61,71.62a27.19,27.19,0,0,1-16.23-5.36A126,126,0,0,0,7,132c0,68.91,55.05,125,122.72,125s122.73-56.06,122.73-125S197.39,7,129.72,7A120.36,120.36,0,0,0,63.83,26.59a28.4,28.4,0,0,1,5.48,16.83A28,28,0,0,1,41.61,71.62Z"/><path class="cls-2" d="M22.83,40.72a2.52,2.52,0,0,0,0,5h8.76c1.46-1.72,3-3.39,4.51-5Z"/><path class="cls-1" d="M129.72,0A127.34,127.34,0,0,0,58.94,21.44a27.29,27.29,0,0,0-17.33-6.21,28,28,0,0,0-27.7,28.19,28.4,28.4,0,0,0,6.29,17.9A132.9,132.9,0,0,0,0,132c0,72.77,58.19,132,129.72,132s129.73-59.2,129.73-132S201.25,0,129.72,0ZM22.83,40.72H39.31V23.94a2.49,2.49,0,1,1,5,0V40.72H60.76a2.52,2.52,0,0,1,0,5H44.28V62.53a2.49,2.49,0,1,1-5,0V45.75H22.83a2.52,2.52,0,0,1,0-5ZM129.72,257C62.05,257,7,200.89,7,132A126,126,0,0,1,25.38,66.26a27.19,27.19,0,0,0,16.23,5.36,28,28,0,0,0,27.7-28.2,28.4,28.4,0,0,0-5.48-16.83A120.36,120.36,0,0,1,129.72,7c67.67,0,122.73,56.06,122.73,125S197.39,257,129.72,257Z"/></g></g></svg>