<svg xmlns="http://www.w3.org/2000/svg" viewBox="0 0 39.61 31.48"><defs><style>.cls-1{fill:#7b9e97;}</style></defs><title>Ativo 26</title><g id="Camada_2" data-name="Camada 2"><g id="Camada_1-2" data-name="Camada 1"><path class="cls-1" d="M20.46,31.45a3.69,3.69,0,0,0,.55,0l16-.36a2.71,2.71,0,0,0,1.93-.84,2.44,2.44,0,0,0,.69-1.77A2.64,2.64,0,0,0,36.87,26l-10.82.25a3.8,3.8,0,0,1-.71,1.89,4,4,0,0,1-2.6,1.6,4.12,4.12,0,0,1-3-.62L14.92,26a.67.67,0,0,1-.29-.44.71.71,0,0,1,.11-.51.66.66,0,0,1,.92-.17L20.49,28a2.77,2.77,0,0,0,3.74-.64,2.44,2.44,0,0,0,.43-1.88,2.48,2.48,0,0,0-1.11-1.66l-10.7-7.09a2.7,2.7,0,0,0-.79-.36,10.44,10.44,0,0,0-1.23-.46h0a12.72,12.72,0,0,0-4.08-.54H0v9H7.09a3,3,0,0,1,.81.1,1.57,1.57,0,0,1,.29.14A5,5,0,0,0,8.7,25l8.55,5.66A4.89,4.89,0,0,0,20.46,31.45Z"/><path class="cls-1" d="M29.11,5a5,5,0,1,0,5,5A5,5,0,0,0,29.11,5Zm0,8.58A3.58,3.58,0,1,1,32.69,10,3.58,3.58,0,0,1,29.11,13.6Z"/><path class="cls-1" d="M37.65,7.44l.69-1.51-1-1.7-1.6-.16a6.88,6.88,0,0,0-.54-.54l-.15-1.65-1.72-1-1.46.67c-.24-.08-.49-.15-.74-.21L30.17,0h-2l-.94,1.31a6.17,6.17,0,0,0-.74.19L25,.81l-1.72,1-.15,1.6a6.88,6.88,0,0,0-.54.54l-1.66.15L20,5.79l.67,1.46c-.08.24-.15.49-.21.74L19.06,9v2l1.31.93c.05.25.12.51.19.75l-.69,1.5,1,1.71,1.6.15c.17.19.35.37.54.55l.16,1.65,1.71,1,1.46-.67c.24.08.49.15.74.21L28,20h2l.93-1.31c.26-.05.51-.12.75-.19l1.51.69,1.71-1,.16-1.6c.19-.17.37-.35.54-.53L37.27,16l1-1.71-.67-1.46c.08-.24.15-.48.21-.74l1.35-.95v-2l-1.31-.93C37.79,7.93,37.72,7.68,37.65,7.44Zm-8.54,9A6.38,6.38,0,1,1,35.5,10,6.39,6.39,0,0,1,29.11,16.4Z"/></g></g></svg>