<svg xmlns="http://www.w3.org/2000/svg" viewBox="0 0 260.53 270.55"><defs><style>.cls-1,.cls-4{fill:none;}.cls-1{stroke:#248979;stroke-miterlimit:10;stroke-width:7px;}.cls-2{fill:#248979;}.cls-3{fill:#fff;}</style></defs><title>Ativo 36</title><g id="Camada_2" data-name="Camada 2"><g id="Camada_1-2" data-name="Camada 1"><ellipse class="cls-1" cx="130.26" cy="135.27" rx="126.76" ry="131.77"/><ellipse class="cls-2" cx="41.77" cy="43.96" rx="27.82" ry="28.92"/><path class="cls-3" d="M34.17,57a8.12,8.12,0,0,0-5.39-5.36l-2.61,8Z"/><path class="cls-3" d="M50.77,29.77a12.7,12.7,0,0,1,3,2.29,12.22,12.22,0,0,1,2.29,3c.06.11.11.23.16.34l.78-.79a1.53,1.53,0,0,0,.47-1.15c0-1.66-1.89-4-3.89-4.83a2.15,2.15,0,0,0-2.4.18l-.78.78Z"/><path class="cls-3" d="M52.48,33.37c-1.86-1.85-3.31-2.34-3.58-2.23l-19,18.93a9.86,9.86,0,0,1,5.82,5.8L54.72,37C54.83,36.67,54.34,35.23,52.48,33.37Z"/><rect class="cls-4" x="96.28" y="120.46" width="53.41" height="4.34"/><rect class="cls-4" x="96.28" y="105.25" width="53.41" height="4.34"/><path class="cls-4" d="M147.65,165.82a19.79,19.79,0,0,0-5.17,6.35v16h-.89a19.7,19.7,0,1,0,24.55-25.69v3.38Zm-1.57,19.93v-10a6.32,6.32,0,0,1,6.32-6.31h11Z"/><rect class="cls-4" x="96.28" y="135.66" width="53.41" height="4.34"/><path class="cls-2" d="M160,152.74a28.09,28.09,0,0,1,6.13.69V82.21H79.83V188.13H133a29.58,29.58,0,0,1-1.05-7.35C131.74,165.3,144.53,152.74,160,152.74ZM96.28,105.25h53.41v4.35H96.28Zm0,15.21h53.41v4.34H96.28Zm0,15.2h53.41V140H96.28Z"/><path class="cls-2" d="M200.51,214.13l-2.23-2.24-6.71,6.86,2.16,2.16c1.15,1.16,3.6.57,5.48-1.3S201.66,215.28,200.51,214.13Z"/><path class="cls-2" d="M182.46,195.83A26.44,26.44,0,1,0,134,181.2a27.74,27.74,0,0,0,1,6.93,26.12,26.12,0,0,0,25.46,19.51,26.87,26.87,0,0,0,15.33-4.93l13.9,13.9,6.71-6.86Zm-22.45,5a19.71,19.71,0,0,1,0-39.42,19.44,19.44,0,0,1,6.13,1A19.7,19.7,0,0,1,160,200.87Z"/></g></g></svg>