<svg xmlns="http://www.w3.org/2000/svg" viewBox="0 0 260.53 271.35"><defs><style>.cls-1{fill:none;stroke:#248979;stroke-miterlimit:10;stroke-width:7px;}.cls-2{fill:#248979;}.cls-3{fill:#fff;}</style></defs><title>Ativo 34</title><g id="Camada_2" data-name="Camada 2"><g id="Camada_1-2" data-name="Camada 1"><ellipse class="cls-1" cx="130.26" cy="135.67" rx="126.76" ry="132.17"/><ellipse class="cls-2" cx="41.83" cy="44.68" rx="27.82" ry="28.92"/><path class="cls-3" d="M34.22,57.72a8.1,8.1,0,0,0-5.38-5.37l-2.61,8Z"/><path class="cls-3" d="M50.83,30.49a12.22,12.22,0,0,1,3,2.29,12.44,12.44,0,0,1,2.3,3l.16.34.78-.78a1.56,1.56,0,0,0,.46-1.16c0-1.65-1.89-4-3.89-4.83a2.14,2.14,0,0,0-2.39.19l-.78.78Z"/><path class="cls-3" d="M52.54,34.09c-1.87-1.86-3.31-2.35-3.58-2.23L30,50.79a9.8,9.8,0,0,1,5.81,5.8l19-18.93C54.89,37.39,54.4,36,52.54,34.09Z"/><path class="cls-2" d="M59.1,113.12v67.19a18.23,18.23,0,0,0,18.19,18.18H186.67a18.24,18.24,0,0,0,18.2-18.18V113.12c0-10-8.18-16.93-18.2-16.93H166.09v0h-9.75v0h-79C67.28,96.19,59.1,103.11,59.1,113.12Zm43.64,22h19.49V115.68h19.49v19.48h19.49v24.36H141.72V179H122.24V159.52h-19.5Z"/><path class="cls-2" d="M156.34,89.12a8.73,8.73,0,0,0-8.45-8.46H116.06a8.73,8.73,0,0,0-8.44,8.46v7.07H97.88V89.12a18.23,18.23,0,0,1,18.18-18.2h31.83a18.25,18.25,0,0,1,18.2,18.2v7h-9.75Z"/></g></g></svg>