<svg xmlns="http://www.w3.org/2000/svg" viewBox="0 0 264.36 273.89"><defs><style>.cls-1{fill:#248979;}.cls-2{fill:none;}</style></defs><title>Ativo 8</title><g id="Camada_2" data-name="Camada 2"><g id="Camada_1-2" data-name="Camada 1"><path class="cls-1" d="M227.17,194.45v0l0-.09a1.67,1.67,0,0,0-1.18-.85c-7.82-1.31-48.83-8.16-62.26-10.18-11.36-1.7-27,.37-32.94,5.65-6-5.28-21.58-7.35-32.94-5.65-13.43,2-54.44,8.87-62.26,10.18a1.61,1.61,0,0,0-1.17.85l0,.09v0h0l-1.67,4.34c.1.14.38.29,1.19.21,8-1.36,49.7-8.38,63.36-10.43,12.46-1.88,27.33-.35,32.29,5.68.1.12.7.95,1.25,1s1.41-1,1.54-1.1c5-5.94,19.61-7.41,32-5.54,13.65,2.05,55.31,9.07,63.35,10.43.81.08,1.1-.07,1.19-.21l-1.67-4.34Z"/><path class="cls-1" d="M184.52,97.41,168.6,95.13a1.31,1.31,0,0,1-1.07-1.28v-7.7a1.25,1.25,0,0,0-1.07-1.24l-10.18-1.07a1.25,1.25,0,0,1-1.07-1.24v-8a1.46,1.46,0,0,0-1.06-1.37l-19-4.4a35.1,35.1,0,0,0-8.75-.05l-19,4.45a1.45,1.45,0,0,0-1,1.37v8a1.26,1.26,0,0,1-1.08,1.24L95,84.91A1.25,1.25,0,0,0,94,86.15v7.7a1.31,1.31,0,0,1-1.07,1.28L77,97.41a1.33,1.33,0,0,0-1.07,1.28v53.57a.89.89,0,0,0,1.07.93s15.06-2.76,20.09-3.51a60.71,60.71,0,0,1,9.07-.64c7.69,0,23.58,4.84,23.58,4.84a4,4,0,0,0,2.07,0S147.67,149,155.36,149a60.71,60.71,0,0,1,9.07.64c5,.75,20.1,3.51,20.1,3.51a.89.89,0,0,0,1.06-.93V98.69A1.32,1.32,0,0,0,184.52,97.41ZM92.87,140.26h-7V127.65h7Zm0-15.55h-7v-12.6h7Zm9.42,15.55h-7V127.65h7Zm0-15.55h-7v-12.6h7Zm20.33,19.2H115V105.63h7.65Zm0-40.91H115V89.22h7.65Zm11.95,40.91h-7.64V105.63h7.64Zm0-40.91h-7.64V89.22h7.64Zm12,40.91h-7.64V105.63h7.64Zm0-40.91h-7.64V89.22h7.64Zm19.64,37.26h-7V127.65h7Zm0-15.55h-7v-12.6h7Zm9.42,15.55h-7V127.65h7Zm0-15.55h-7v-12.6h7Z"/><path class="cls-1" d="M221.36,167.35h0l0-.1a1.42,1.42,0,0,0-.82-.66l-.67-.1c-1.39-.21-6-1-11.74-2-13.65-2.35-34.27-5.89-44.09-7.2a65.45,65.45,0,0,0-8.64-.54c-7.82,0-18.56,1.34-24.61,5-6-3.7-16.79-5-24.61-5a65.19,65.19,0,0,0-8.63.54c-9.82,1.31-30.45,4.85-44.1,7.2-5.78,1-10.35,1.77-11.74,2l-.66.1a1.35,1.35,0,0,0-.82.66l0,.1h0l-7.6,19.94c.05.26.3.58,1.37.41l2-.33c.47-.07,46.65-7.46,61.59-9.46a76,76,0,0,1,9.64-.63c15.7,0,19,3.77,21.52,5.42.93.62,1.28,1.35,2.07,1.34s1.14-.72,2.07-1.34c2.49-1.65,5.82-5.44,21.52-5.42a76.18,76.18,0,0,1,9.65.63c14.93,2,61.12,9.39,61.58,9.46l2,.33c1.06.17,1.32-.15,1.36-.41Z"/><path class="cls-2" d="M55.68,36.22l.76-.75a1.55,1.55,0,0,0,.44-1.12,3.09,3.09,0,0,0-.21-1l-1.81,1.45a8.09,8.09,0,0,1,.67,1.07C55.58,36,55.64,36.11,55.68,36.22Z"/><path class="cls-2" d="M42.35,74.25a27.44,27.44,0,0,1-16.62-5.61A132.93,132.93,0,0,0,7,137C7,208.6,63.15,266.89,132.18,266.89S257.36,208.6,257.36,137,201.2,7,132.18,7A121.18,121.18,0,0,0,64.93,27.39,29.85,29.85,0,0,1,70.59,45C70.59,61.14,57.94,74.25,42.35,74.25Z"/><path class="cls-2" d="M54.21,37.69c.07-.17-.11-.81-.72-1.72A128.68,128.68,0,0,0,35.37,54.66,11.59,11.59,0,0,1,36,55.89Z"/><path class="cls-2" d="M34.15,56.23c-.29.37-.57.75-.85,1.12L34.44,57C34.36,56.72,34.25,56.47,34.15,56.23Z"/><path class="cls-1" d="M132.18,0A128.08,128.08,0,0,0,60.11,22.21a27.49,27.49,0,0,0-17.76-6.53C26.76,15.68,14.11,28.8,14.11,45a29.8,29.8,0,0,0,6.48,18.66A139.71,139.71,0,0,0,0,137c0,75.51,59.29,136.94,132.18,136.94S264.36,212.46,264.36,137,205.06,0,132.18,0ZM50.84,29.88a2.08,2.08,0,0,1,2.3-.17,6.89,6.89,0,0,1,3.53,3.66,3.09,3.09,0,0,1,.21,1,1.55,1.55,0,0,1-.44,1.12l-.76.75c0-.11-.1-.22-.15-.33a8.09,8.09,0,0,0-.67-1.07A13.24,13.24,0,0,0,53.32,33a12,12,0,0,0-2.91-2.2l-.32-.15Zm-2.23,2.23c.26-.11,1.65.36,3.44,2.14A11.87,11.87,0,0,1,53.49,36c.61.91.79,1.55.72,1.72L36,55.89a11.59,11.59,0,0,0-.58-1.23,9.38,9.38,0,0,0-5-4.35ZM29.27,51.82a7.71,7.71,0,0,1,4.88,4.41c.1.24.21.49.29.75l-1.14.37-6.54,2.13ZM132.18,266.89C63.15,266.89,7,208.6,7,137A132.93,132.93,0,0,1,25.73,68.64a27.44,27.44,0,0,0,16.62,5.61c15.59,0,28.24-13.11,28.24-29.28a29.85,29.85,0,0,0-5.66-17.58A121.18,121.18,0,0,1,132.18,7c69,0,125.18,58.29,125.18,130S201.2,266.89,132.18,266.89Z"/></g></g></svg>