<svg xmlns="http://www.w3.org/2000/svg" viewBox="0 0 266.24 236.04"><defs><style>.cls-1{fill:#ededed;}</style></defs><title>Ativo 37</title><g id="Camada_2" data-name="Camada 2"><g id="Camada_1-2" data-name="Camada 1"><path class="cls-1" d="M61,236l-4.7-2.95c-1.13-.66-2.44-1.6-3.94-2.68l-1.68-1.21c-1.58-1.06-3.26-2.43-5.09-3.94l-2.17-1.77A128.57,128.57,0,0,1,26,205.23,124.36,124.36,0,0,1,.41,138.62,127.13,127.13,0,0,1,4.62,94.68,128.46,128.46,0,0,1,25.88,51.81a130.46,130.46,0,0,1,85-50.34c4-.59,8.79-1.08,12.53-1.26L132.77,0,136,.12a133.82,133.82,0,0,1,24.51,3.24,136.48,136.48,0,0,1,93.92,78,138.12,138.12,0,0,1,8.67,26.95c.66,2.83,1.07,5.51,1.45,8l1.06,8.86c.07.67.12,1.3.15,1.75l.52,8.49-41.71,1.05.09-8.52c0-.44,0-.74,0-1l-.32-6.26c-.13-1.6-.26-3.34-.56-5.21a98.31,98.31,0,0,0-4.79-19.79A99.73,99.73,0,0,0,206.78,72a102.79,102.79,0,0,0-54-39.42,105.24,105.24,0,0,0-18.89-3.9L123,28c-1.46,0-2.93,0-4.11,0l-1.82.07c-1,0-2,.05-3,.17A106,106,0,0,0,74.52,39.16,109.18,109.18,0,0,0,20.89,99.82a112.75,112.75,0,0,0-.72,73,112.26,112.26,0,0,0,13.21,27.09,119.75,119.75,0,0,0,14.95,18.15A117.59,117.59,0,0,0,59.82,228l4.44,3.26ZM132.68,5.75l-9,.2c-3.6.18-8.18.64-12,1.21A124.64,124.64,0,0,0,30.47,55.28,122.86,122.86,0,0,0,10.16,96.2a121.41,121.41,0,0,0-4,42A116.25,116.25,0,0,0,14,172.52,114.31,114.31,0,0,1,8.7,138.14,115.3,115.3,0,0,1,37.31,60.81,114.66,114.66,0,0,1,72,34a111.53,111.53,0,0,1,41.55-11.5c1.11-.12,2.26-.16,3.4-.19l1.64-.06c1.27-.08,2.91-.07,4.52,0l3.16,0h.26l8,.65a110.52,110.52,0,0,1,19.91,4.12A108.46,108.46,0,0,1,211.5,68.69a105.29,105.29,0,0,1,17.91,45.9c.31,2,.47,3.85.61,5.59l.31,6.17c0,.65,0,1.1,0,1.69l0,2.52,29.79-.75-.16-2.62c0-.37-.07-.88-.13-1.45l-1-8.56c-.35-2.31-.74-4.85-1.37-7.58a132.34,132.34,0,0,0-8.33-25.9,131.16,131.16,0,0,0-48.47-57.1A129.44,129.44,0,0,0,159.2,9a127.9,127.9,0,0,0-23.46-3.09Z"/><path class="cls-1" d="M145.71,141.57l1.37-6.55a16.44,16.44,0,0,0-6.9-17l-5-3.4,5.81-1.74c21.9-6.59,70.22-20,70.7-20.09l18-5L214,98c-.44.28-43.45,28.23-62.6,40ZM147.59,117a22.14,22.14,0,0,1,5.54,13.26c12-7.49,29.36-18.67,41.92-26.78C180.79,107.42,161.12,113,147.59,117Z"/><path class="cls-1" d="M131.05,153.78a22.13,22.13,0,1,1,12.35-40.49h0a22.12,22.12,0,0,1,9.77,18.36,22.06,22.06,0,0,1-22.12,22.13Zm0-38.5a16.39,16.39,0,1,0,9.13,2.79A16.21,16.21,0,0,0,131.05,115.28Z"/></g></g></svg>