<svg xmlns="http://www.w3.org/2000/svg" viewBox="0 0 151.64 165.68"><defs><style>.cls-1{fill:#969696;}</style></defs><title>Ativo 41</title><g id="Camada_2" data-name="Camada 2"><g id="Camada_1-2" data-name="Camada 1"><path class="cls-1" d="M29.43,74.62a5.9,5.9,0,0,1,.87-3l-.08.1V46.39L77.29,76.06l48-29.67V69.87a40,40,0,0,1,.77,4.75c0,9-21.63,16.21-48.32,16.21S29.43,83.56,29.43,74.62Z"/><polygon class="cls-1" points="151.64 24.11 77.89 0 3.87 24.46 77.64 70.82 151.64 24.11"/><path class="cls-1" d="M29.42,117a48.36,48.36,0,1,0,96.71,0V90.83s-16.42,12.32-48.32,12.32S29.42,91,29.42,91Z"/><polygon class="cls-1" points="8.52 79.89 4.4 28.57 0 79.89 4.4 94.58 8.52 79.89"/></g></g></svg>