<svg xmlns="http://www.w3.org/2000/svg" viewBox="0 0 192 192"><defs><style>.cls-1{fill:none;stroke:#359e62;stroke-miterlimit:10;stroke-width:4px;}.cls-2{fill:#359e62;}</style></defs><title>Ativo 10</title><g id="Camada_2" data-name="Camada 2"><g id="Camada_1-2" data-name="Camada 1"><circle class="cls-1" cx="96" cy="96" r="94"/><path class="cls-2" d="M45,97.13c3.21,3,6.26,6.08,9.31,9.18s6,6.27,8.87,9.51,5.82,6.41,8.6,9.72L76,130.46c1.41,1.63,2.82,3.27,4.16,5l-8.43-.4,9.73-11.55,10-11.29L94,109.36l2.56-2.77,5.15-5.51,5.15-5.52c1.72-1.84,3.52-3.6,5.27-5.4Q122.62,79.33,133.71,69l5.57-5.13,5.7-5c3.82-3.33,7.72-6.58,11.76-9.71l.52.48c-6.72,7.48-13.39,15-20.16,22.45L116.86,94.48,96.6,116.85,76.23,139.11l-.5.55-.43-.59L59.83,118.35,44.45,97.55Z"/></g></g></svg>