<svg xmlns="http://www.w3.org/2000/svg" viewBox="0 0 264.36 273.89"><defs><style>.cls-1{fill:#248979;}.cls-2{fill:none;}</style></defs><title>Ativo 9</title><g id="Camada_2" data-name="Camada 2"><g id="Camada_1-2" data-name="Camada 1"><path class="cls-1" d="M127.41,174.45c-4.06,0-7.35,3.69-7.35,8.23V220h14.7v-37.3C134.76,178.14,131.47,174.45,127.41,174.45Z"/><path class="cls-1" d="M106.31,187.86c-4.07,0-7.35,3.67-7.35,8.22V220h14.7v-23.9C113.66,191.53,110.36,187.86,106.31,187.86Z"/><path class="cls-1" d="M148.54,162c-4,0-7.34,3.68-7.34,8.23V220h14.69V170.24C155.89,165.69,152.6,162,148.54,162Z"/><path class="cls-1" d="M169.65,147.57c-4.06,0-7.35,3.68-7.35,8.24V220H177V155.81C177,151.25,173.7,147.57,169.65,147.57Z"/><path class="cls-1" d="M147.24,160.31a5.78,5.78,0,0,0,2.5-7.27l-7.55-19.19a5.29,5.29,0,0,0-2.35-2.72,4.73,4.73,0,0,0-.44-.28l-5.79-3.25,9.76-15.33,3.69,9.28a4.3,4.3,0,0,0,1.92,2.23,3.88,3.88,0,0,0,1.77.63L167.13,126a4.47,4.47,0,0,0,4.67-4.36,4.69,4.69,0,0,0-3.9-5.22L153.31,115l-4.89-12.3a18.8,18.8,0,0,0-.35-11.1c5.29,1.89,11.2-.56,14-6.2,3.23-6.45,1.2-14.6-4.57-18.24s-13-1.32-16.28,5.13a14.76,14.76,0,0,0-.7,11.45,11,11,0,0,0-4.26-.55,3.89,3.89,0,0,0-1.6-.22l-25.57,2a4.1,4.1,0,0,0-2.53,1.18,4.69,4.69,0,0,0-1.15,1.67l-6.89,16.71a5.07,5.07,0,0,0,2.08,6.4,4.13,4.13,0,0,0,5.71-2.31l5.86-14.27,11.24-.88,0,0-24,36.36-15.77-2.41c-2.69-.4-5.18,1.71-5.53,4.75a5.43,5.43,0,0,0,4.24,6.2l18.55,2.85a4.69,4.69,0,0,0,4.46-2c.1-.11.2-.22.29-.34l7.72-10,20.47,11.14,6.86,17.41A4.7,4.7,0,0,0,147.24,160.31Z"/><path class="cls-1" d="M86.33,200.28c-3.17,0-5.74,2.26-5.74,5V220H92.07V205.32C92.07,202.54,89.5,200.28,86.33,200.28Z"/><path class="cls-2" d="M55.68,36.22l.76-.75a1.55,1.55,0,0,0,.44-1.12,3.09,3.09,0,0,0-.21-1l-1.81,1.45a8.09,8.09,0,0,1,.67,1.07C55.58,36,55.64,36.11,55.68,36.22Z"/><path class="cls-2" d="M42.35,74.25a27.44,27.44,0,0,1-16.62-5.61A132.93,132.93,0,0,0,7,137C7,208.6,63.15,266.89,132.18,266.89S257.36,208.6,257.36,137,201.2,7,132.18,7A121.18,121.18,0,0,0,64.93,27.39,29.85,29.85,0,0,1,70.59,45C70.59,61.14,57.94,74.25,42.35,74.25Z"/><path class="cls-2" d="M54.21,37.69c.07-.17-.11-.81-.72-1.72A128.68,128.68,0,0,0,35.37,54.66,11.59,11.59,0,0,1,36,55.89Z"/><path class="cls-2" d="M34.15,56.23c-.29.37-.57.75-.85,1.12L34.44,57C34.36,56.72,34.25,56.47,34.15,56.23Z"/><path class="cls-1" d="M132.18,0A128.08,128.08,0,0,0,60.11,22.21a27.49,27.49,0,0,0-17.76-6.53C26.76,15.68,14.11,28.8,14.11,45a29.8,29.8,0,0,0,6.48,18.66A139.71,139.71,0,0,0,0,137c0,75.51,59.29,136.94,132.18,136.94S264.36,212.46,264.36,137,205.06,0,132.18,0ZM50.84,29.88a2.08,2.08,0,0,1,2.3-.17,6.89,6.89,0,0,1,3.53,3.66,3.09,3.09,0,0,1,.21,1,1.55,1.55,0,0,1-.44,1.12l-.76.75c0-.11-.1-.22-.15-.33a8.09,8.09,0,0,0-.67-1.07A13.24,13.24,0,0,0,53.32,33a12,12,0,0,0-2.91-2.2l-.32-.15Zm-2.23,2.23c.26-.11,1.65.36,3.44,2.14A11.87,11.87,0,0,1,53.49,36c.61.91.79,1.55.72,1.72L36,55.89a11.59,11.59,0,0,0-.58-1.23,9.38,9.38,0,0,0-5-4.35ZM29.27,51.82a7.71,7.71,0,0,1,4.88,4.41c.1.24.21.49.29.75l-1.14.37-6.54,2.13ZM132.18,266.89C63.15,266.89,7,208.6,7,137A132.93,132.93,0,0,1,25.73,68.64a27.44,27.44,0,0,0,16.62,5.61c15.59,0,28.24-13.11,28.24-29.28a29.85,29.85,0,0,0-5.66-17.58A121.18,121.18,0,0,1,132.18,7c69,0,125.18,58.29,125.18,130S201.2,266.89,132.18,266.89Z"/></g></g></svg>