<svg xmlns="http://www.w3.org/2000/svg" viewBox="0 0 36.5 37.82"><defs><style>.cls-1{fill:#fff;stroke:#fff;stroke-miterlimit:10;stroke-width:2px;}</style></defs><title>Ativo 17</title><g id="Camada_2" data-name="Camada 2"><g id="Camada_1-2" data-name="Camada 1"><path class="cls-1" d="M19.5,17.61V2.3A1.27,1.27,0,0,0,18.25,1h0A1.27,1.27,0,0,0,17,2.3V17.61H2.25A1.27,1.27,0,0,0,1,18.91H1a1.27,1.27,0,0,0,1.25,1.3H17V35.52a1.27,1.27,0,0,0,1.25,1.3h0a1.27,1.27,0,0,0,1.25-1.3V20.21H34.25a1.27,1.27,0,0,0,1.25-1.3h0a1.27,1.27,0,0,0-1.25-1.3Z"/></g></g></svg>