<svg xmlns="http://www.w3.org/2000/svg" viewBox="0 0 35.5 36.82"><defs><style>.cls-1{fill:none;stroke:#fff;stroke-miterlimit:10;}</style></defs><title>Ativo 12</title><g id="Camada_2" data-name="Camada 2"><g id="Camada_1-2" data-name="Camada 1"><path class="cls-1" d="M19,17.11V1.8A1.27,1.27,0,0,0,17.75.5h0A1.27,1.27,0,0,0,16.5,1.8V17.11H1.75A1.27,1.27,0,0,0,.5,18.41h0a1.27,1.27,0,0,0,1.25,1.3H16.5V35a1.27,1.27,0,0,0,1.25,1.3h0A1.27,1.27,0,0,0,19,35V19.71H33.75A1.27,1.27,0,0,0,35,18.41h0a1.27,1.27,0,0,0-1.25-1.3Z"/></g></g></svg>