<svg xmlns="http://www.w3.org/2000/svg" viewBox="0 0 34 37.15"><defs><style>.cls-1{fill:#7b9e97;}</style></defs><title>Ativo 25</title><g id="Camada_2" data-name="Camada 2"><g id="Camada_1-2" data-name="Camada 1"><path class="cls-1" d="M6.6,16.73a1.39,1.39,0,0,1,.19-.67,0,0,0,0,1,0,0V10.4l10.56,6.65L28.09,10.4v5.27a8.85,8.85,0,0,1,.18,1.06c0,2-4.85,3.63-10.84,3.63S6.6,18.73,6.6,16.73Z"/><polygon class="cls-1" points="34 5.41 17.46 0 0.87 5.49 17.41 15.88 34 5.41"/><path class="cls-1" d="M6.6,26.23a10.84,10.84,0,1,0,21.68,0V20.36s-3.68,2.77-10.84,2.77S6.6,20.4,6.6,20.4Z"/><polygon class="cls-1" points="1.91 17.91 0.99 6.41 0 17.91 0.99 21.21 1.91 17.91"/></g></g></svg>