<svg xmlns="http://www.w3.org/2000/svg" viewBox="0 0 34.12 34.87"><defs><style>.cls-1{fill:none;stroke:#ededed;stroke-miterlimit:10;}</style></defs><title>bubble</title><g id="Camada_2" data-name="Camada 2"><g id="Camada_1-2" data-name="Camada 1"><g id="bubble"><path class="cls-1" d="M33.62,16.06C33.62,7.47,26.21.5,17.06.5S.5,7.47.5,16.06,7.91,31.62,17.06,31.62a17.37,17.37,0,0,0,7.88-1.87c2.61,1.41,7.53,4.15,7.53,4.15l-1.95-8.78A14.85,14.85,0,0,0,33.62,16.06ZM10.34,17.83A1.8,1.8,0,1,1,12.13,16,1.8,1.8,0,0,1,10.34,17.83Zm6.15,0A1.8,1.8,0,1,1,18.28,16,1.8,1.8,0,0,1,16.49,17.83Zm6.14,0a1.8,1.8,0,1,1,1.8-1.8A1.8,1.8,0,0,1,22.63,17.83Z"/></g></g></g></svg>