<?xml version="1.0"?>
<svg xmlns="http://www.w3.org/2000/svg" height="512px" viewBox="-18 -19 597.33326 597" width="512px" class=""><g><path d="m350 420.355469v-40.898438c-13.613281 6.382813-28.460938 9.699219-43.5 9.707031h-53c-15.03125-.007812-29.886719-3.324218-43.5-9.707031v40.898438l70 56zm0 0" data-original="#000000" class="active-path" data-old_color="#7b9e97" fill="#7b9e97"/><path d="m280 69.289062-120 18.460938v19.820312c-.019531.535157-.085938 1.066407-.199219 1.59375h.199219v68.300782c14.355469-5.539063 29.613281-8.351563 45-8.300782 24.964844-.433593 49.386719 7.351563 69.492188 22.15625 1.996093 1.527344 3.789062 3.097657 5.507812 4.714844 1.71875-1.628906 3.558594-3.199218 5.53125-4.734375 20.105469-14.796875 44.511719-22.570312 69.46875-22.136719 15.386719-.050781 30.648438 2.761719 45 8.300782v-68.300782h.199219c-.109375-.527343-.175781-1.058593-.199219-1.59375v-19.820312zm0 0" data-original="#000000" class="active-path" data-old_color="#7b9e97" fill="#7b9e97"/><path d="m306.5 369.164062c46.09375-.054687 83.445312-37.40625 83.5-83.496093v-90.410157c-11.230469-4.027343-23.070312-6.085937-35-6.09375-20.476562-.460937-40.542969 5.8125-57.109375 17.851563-3.714844 2.851563-7.035156 6.1875-9.867187 9.921875-1.890626 2.515625-4.855469 4-8.003907 4-3.144531 0-6.109375-1.484375-7.996093-4-2.828126-3.722656-6.140626-7.054688-9.851563-9.902344-16.582031-12.058594-36.667969-18.339844-57.171875-17.871094-11.929688.007813-23.769531 2.066407-35 6.09375v90.410157c.058594 46.089843 37.40625 83.441406 83.5 83.496093zm0 0" data-original="#000000" class="active-path" data-old_color="#7b9e97" fill="#7b9e97"/><path d="m265.03125 489.996094-83.21875-66.578125-18.28125 24.390625 76.070312 67.617187zm0 0" data-original="#000000" class="active-path" data-old_color="#7b9e97" fill="#7b9e97"/><path d="m396.46875 447.808594-18.273438-24.390625-83.222656 66.578125 25.429688 25.429687zm0 0" data-original="#000000" class="active-path" data-old_color="#7b9e97" fill="#7b9e97"/><path d="m0 519.46875v39.695312h560v-39.695312c.039062-8.175781-4.957031-15.527344-12.570312-18.503906l-127.515626-41.289063c-1.003906-.34375-2.050781-.519531-3.113281-.511719h-3l-87.160156 77.472657c-3.953125 3.515625-9.964844 3.339843-13.710937-.402344l-32.929688-32.929687-32.929688 32.929687c-3.746093 3.742187-9.75 3.917969-13.710937.402344l-87.15625-77.472657h-3c-.996094-.015624-1.988281.136719-2.929687.449219l-128.269532 41.554688c-7.34375 3.09375-12.0859372 10.324219-12.003906 18.300781zm0 0" data-original="#000000" class="active-path" data-old_color="#7b9e97" fill="#7b9e97"/><path d="m105.429688 78.6875 34.570312 14.027344v-13.550782c.003906-4.929687 3.605469-9.125 8.480469-9.875l130-20c.992187-.15625 2.007812-.15625 3 0l130 20c4.890625.730469 8.515625 4.929688 8.519531 9.875v13.550782l34.570312-14-174.570312-78.546875zm0 0" data-original="#000000" class="active-path" data-old_color="#7b9e97" fill="#7b9e97"/><path d="m480 119.164062v-30h-20v30c-5.523438 0-10 4.480469-10 10v60c0 5.523438 4.476562 10 10 10h20c5.523438 0 10-4.476562 10-10v-60c0-5.519531-4.476562-10-10-10zm0 0" data-original="#000000" class="active-path" data-old_color="#7b9e97" fill="#7b9e97"/></g> </svg>
