<?xml version="1.0"?>
<svg xmlns="http://www.w3.org/2000/svg" height="512px" viewBox="0 -39 457.14286 457" width="512px" class=""><g><path d="m448 360.679688h-12.902344v-351.464844c0-5.050782-4.089844-9.1445315-9.140625-9.1445315h-66.011719c-5.050781 0-9.140624 4.0937495-9.140624 9.1445315v351.464844h-80.089844v-179.488282c0-5.046875-4.089844-9.140625-9.144532-9.140625h-66.007812c-5.054688 0-9.144531 4.09375-9.144531 9.140625v179.488282h-80.097657v-310.234376c0-5.046874-4.089843-9.140624-9.140624-9.140624h-66.011719c-5.050781 0-9.140625 4.09375-9.140625 9.140624v310.234376h-12.882813c-5.054687 0-9.144531 4.09375-9.144531 9.140624 0 5.050782 4.089844 9.144532 9.144531 9.144532h438.855469c5.054688 0 9.144531-4.09375 9.144531-9.144532 0-5.046874-4.089843-9.140624-9.144531-9.140624zm-78.910156-342.324219h47.722656v342.324219h-47.722656zm-164.382813 171.980469h47.722657v170.34375h-47.722657zm-164.394531-130.746094h47.722656v301.089844h-47.722656zm0 0" data-original="#000000" class="active-path" data-old_color="#ffffff" fill="#ffffff"/></g> </svg>
