<svg xmlns="http://www.w3.org/2000/svg" viewBox="0 0 28.04 37.16"><defs><style>.cls-1{fill:#7b9e97;}</style></defs><title>Ativo 27</title><g id="Camada_2" data-name="Camada 2"><g id="Camada_1-2" data-name="Camada 1"><polygon class="cls-1" points="17.23 36.58 17.23 34.45 16.55 34.45 16.55 36.58 14.45 36.58 14.45 37.16 19.2 37.16 19.2 36.58 17.23 36.58"/><polygon class="cls-1" points="11.56 36.58 11.56 34.45 10.88 34.45 10.88 36.58 8.78 36.58 8.78 37.16 13.53 37.16 13.53 36.58 11.56 36.58"/><path class="cls-1" d="M3.17,15.55A7.8,7.8,0,0,0,0,22.09,7.6,7.6,0,0,0,3.29,28.7a5.8,5.8,0,0,1-.12-1.11Z"/><path class="cls-1" d="M28,22.09a7.69,7.69,0,0,0-3.17-6.6c0,4.54,0,11.76-.16,13.3C26.67,27.68,28,25.1,28,22.09Z"/><path class="cls-1" d="M6.88,29.36h0Z"/><path class="cls-1" d="M23.71,15.13v-3.5A6.42,6.42,0,0,0,19,5.72c2.21-.3,4.08-3,.69-5.72,0,.07-2.95,5.31-2.88,5.34H11.47L8.54,0C5.18,2.69,6.86,5.38,9,5.74c-2.75.9-4.88,3.25-4.88,6V27.59a6,6,0,0,0,.26,1.11,1.76,1.76,0,0,0,.09-.2c.61,3,3.64,5,7.18,5h4.87a7.22,7.22,0,0,0,7-5.09c0-.05,0-.39,0-.39h0C23.69,27.15,23.71,19.66,23.71,15.13ZM6.88,29.36h0ZM16,20.27c0,.61-1.83,1.41-1.83,1.41s-1.82-.8-1.82-1.41V18.93a1.84,1.84,0,1,1,3.65,0Zm2.21-3.1A4.15,4.15,0,0,1,14,13.4a4.16,4.16,0,1,1,0-.78,4.16,4.16,0,1,1,4.14,4.55Z"/><path class="cls-1" d="M20.68,4h0a2,2,0,0,1-2.77.62l1.83-3.31C21,2.32,21.11,3.23,20.68,4Z"/><path class="cls-1" d="M7.65,4h0a2,2,0,0,0,2.77.62L8.59,1.33C7.34,2.32,7.22,3.23,7.65,4Z"/><path class="cls-1" d="M19.49,13a1.33,1.33,0,1,1-1.33-1.33A1.33,1.33,0,0,1,19.49,13Z"/><path class="cls-1" d="M18.6,13a.42.42,0,1,1-.42-.42A.42.42,0,0,1,18.6,13Z"/><path class="cls-1" d="M11.2,13a1.33,1.33,0,1,1-1.33-1.33A1.34,1.34,0,0,1,11.2,13Z"/><path class="cls-1" d="M10.31,13a.42.42,0,1,1-.42-.42A.42.42,0,0,1,10.31,13Z"/></g></g></svg>