<svg xmlns="http://www.w3.org/2000/svg" viewBox="0 0 260.53 271.35"><defs><style>.cls-1{fill:none;stroke:#248979;stroke-width:7px;}.cls-1,.cls-3{stroke-miterlimit:10;}.cls-2{fill:#248979;}.cls-3{fill:#f7f7f7;stroke:#f7f7f7;stroke-width:2px;}</style></defs><title>Ativo 38</title><g id="Camada_2" data-name="Camada 2"><g id="Camada_1-2" data-name="Camada 1"><ellipse class="cls-1" cx="130.26" cy="135.67" rx="126.76" ry="132.17"/><ellipse class="cls-2" cx="41.77" cy="44.57" rx="27.82" ry="29"/><path class="cls-3" d="M43.45,42.82V24.52A1.52,1.52,0,0,0,42,23h0a1.52,1.52,0,0,0-1.5,1.55v18.3H22.92a1.53,1.53,0,0,0-1.5,1.56h0a1.53,1.53,0,0,0,1.5,1.56H40.46V64.23A1.53,1.53,0,0,0,42,65.79h0a1.53,1.53,0,0,0,1.49-1.56V45.94H61a1.52,1.52,0,0,0,1.49-1.56h0A1.52,1.52,0,0,0,61,42.82Z"/><path class="cls-2" d="M202,88.67c-2.14,0-4.16,0-6.18.08V81.89h-2.25c-43.74,0-58.4,10.46-63.13,16.11-4.73-5.65-19.39-16.11-63.13-16.11H65.1v6.86c-2,0-4-.08-6.18-.08H53.81v99.22h5.11c54,0,65,12.37,66.54,14.67h10.13c1.7-2.41,12.94-14.67,66.45-14.67h5.11V88.67Zm-74.93,94.74c-7.55-5.55-23.34-12-56.37-12.43V87.56c46.25.6,55.19,13.27,56.37,15.33ZM190.23,171c-33,.44-48.83,6.88-56.38,12.43V102.92c1.29-2.26,10.47-14.76,56.38-15.36Z"/></g></g></svg>