<svg xmlns="http://www.w3.org/2000/svg" viewBox="0 0 1101.64 201.43"><defs><style>.cls-1{font-size:90.54px;fill:#606060;font-family:OpenSans-BoldItalic, Open Sans;font-weight:700;font-style:italic;}.cls-2{fill:#b2b2b2;}.cls-3{fill:#096d5a;}</style></defs><title>Ativo 36</title><g id="Camada_2" data-name="Camada 2"><g id="Camada_1-2" data-name="Camada 1"><text class="cls-1" transform="translate(852.5 173.36)">.web</text><path class="cls-2" d="M433.2,82A48.9,48.9,0,0,1,470,122.32a2.89,2.89,0,0,0,2.84,2.53h0a2.89,2.89,0,0,0,2.85-3.32,54.66,54.66,0,0,0-41.2-45.1,2.89,2.89,0,0,0-3.56,2.8h0A2.88,2.88,0,0,0,433.2,82Z"/><path class="cls-2" d="M373.5,122.38a48.88,48.88,0,0,1,41.2-41.2,2.85,2.85,0,0,0,2.47-2.79v-.12a2.83,2.83,0,0,0-3.26-2.78,54.65,54.65,0,0,0-46.1,46.1,2.83,2.83,0,0,0,2.78,3.26h.13A2.83,2.83,0,0,0,373.5,122.38Z"/><path class="cls-2" d="M469.16,140.88a48.92,48.92,0,0,1-36,36,2.9,2.9,0,0,0-2.26,2.8h0a2.89,2.89,0,0,0,3.58,2.8,54.68,54.68,0,0,0,40.24-40.24,2.89,2.89,0,0,0-2.8-3.58h0A2.9,2.9,0,0,0,469.16,140.88Z"/><path class="cls-2" d="M414.65,177.69a48.9,48.9,0,0,1-40.3-36.81,2.88,2.88,0,0,0-2.79-2.26h0a2.89,2.89,0,0,0-2.8,3.56,54.66,54.66,0,0,0,45.1,41.2,2.9,2.9,0,0,0,3.32-2.85h0A2.89,2.89,0,0,0,414.65,177.69Z"/><rect class="cls-2" x="421.76" y="62.86" width="4.59" height="32.14" rx="2.3"/><rect class="cls-2" x="456.2" y="129.44" width="32.14" height="4.59" rx="2.3"/><rect class="cls-2" x="355.18" y="129.44" width="32.14" height="4.59" rx="2.3"/><rect class="cls-2" x="421.76" y="163.7" width="4.59" height="32.14" rx="2.3"/><path class="cls-2" d="M120.7,142.26H51.6l-18,39.2H7.38L0,176.65,80.05,5.12l7.2,4.8,77,171.54H137.64l-7.22-4.77Zm-9.93-22.89L86.83,64.48,61.74,119.37Z"/><path class="cls-2" d="M177,79.64l16.18-4.81,7.34,4.81v9.1q6.48-6.8,11.5-9.31a26.36,26.36,0,0,1,12.12-2.61q9.32,0,19.45,6.06l-10.77,21.54q-6.69-4.82-13.07-4.81-19.23,0-19.23,29.06v52.79H177l-7.22-4.77Z"/><path class="cls-2" d="M280.08,4.9V91.46q14.12-14.64,32-14.64a44,44,0,0,1,34.29,15.37q13.69,15.25,13.69,38.05,0,23.52-13.8,38.89t-34.6,15.26q-17.67,0-31.57-13.59v10.66l-23.52,7.22-7.22-5,7.22-171.54L272.92,0ZM336,131.29q0-14.64-7.94-23.84A25.48,25.48,0,0,0,307.89,98q-13,0-21.12,9.1t-8,23.41q0,14.85,7.95,23.73,7.93,9.1,20.91,9.1a25.92,25.92,0,0,0,20.28-9.1Q336,145.09,336,131.29Z"/><path class="cls-2" d="M379.44,130a39.51,39.51,0,0,1,12.33-29.31,43.5,43.5,0,0,1,60.27.08q12.24,12.17,12.24,29.89,0,17.88-12.33,30t-30.45,12q-17.89,0-30-12.25Q379.44,148.28,379.44,130Zm18.78.33q0,11.93,6.37,18.86,6.54,7,17.23,7t17.23-7q6.45-6.93,6.45-18.53t-6.45-18.54q-6.53-7-17.23-7-10.53,0-17.06,7T398.22,130.32Z"/><path class="cls-3" d="M426.74,77.22a48.89,48.89,0,0,1,36.81,40.29,2.89,2.89,0,0,0,2.84,2.53h0a2.9,2.9,0,0,0,2.85-3.32A54.66,54.66,0,0,0,428,71.62a2.89,2.89,0,0,0-3.56,2.8h0A2.88,2.88,0,0,0,426.74,77.22Z"/><path class="cls-3" d="M367,117.56a48.88,48.88,0,0,1,41.2-41.19,2.85,2.85,0,0,0,2.47-2.79v-.12a2.83,2.83,0,0,0-3.26-2.78,54.65,54.65,0,0,0-46.1,46.1,2.83,2.83,0,0,0,2.78,3.26h.12A2.85,2.85,0,0,0,367,117.56Z"/><path class="cls-3" d="M462.7,136.07a48.92,48.92,0,0,1-36,36,2.9,2.9,0,0,0-2.26,2.8h0a2.89,2.89,0,0,0,3.58,2.8,54.69,54.69,0,0,0,40.24-40.24,2.89,2.89,0,0,0-2.8-3.58h0A2.9,2.9,0,0,0,462.7,136.07Z"/><path class="cls-3" d="M408.18,172.88a48.9,48.9,0,0,1-40.29-36.81,2.88,2.88,0,0,0-2.79-2.26h0a2.89,2.89,0,0,0-2.8,3.56,54.66,54.66,0,0,0,45.1,41.2,2.9,2.9,0,0,0,3.32-2.85h0A2.89,2.89,0,0,0,408.18,172.88Z"/><rect class="cls-3" x="415.3" y="58.05" width="4.59" height="32.14" rx="2.3"/><rect class="cls-3" x="449.74" y="124.63" width="32.14" height="4.59" rx="2.3"/><rect class="cls-3" x="348.72" y="124.63" width="32.14" height="4.59" rx="2.3"/><rect class="cls-3" x="415.3" y="158.89" width="4.59" height="32.14" rx="2.3"/><path class="cls-3" d="M114.24,137.45H45.14l-18,39.2H.92L80.79,5.11l77,171.54H131.18Zm-9.93-22.89L80.37,59.67,55.28,114.56Z"/><path class="cls-3" d="M170.57,74.83h23.52v9.1q6.48-6.8,11.5-9.31A26.36,26.36,0,0,1,217.71,72q9.3,0,19.45,6.06L226.39,99.61q-6.69-4.81-13.07-4.81-19.23,0-19.23,29.06v52.79H170.57Z"/><path class="cls-3" d="M273.62.09V86.65Q287.73,72,305.61,72A44,44,0,0,1,339.9,87.38q13.69,15.25,13.69,38.05,0,23.52-13.8,38.89t-34.6,15.26q-17.67,0-31.57-13.59v10.66l-23.52,7.22V7.31Zm55.93,126.38q0-14.62-7.95-23.83a25.45,25.45,0,0,0-20.17-9.41q-13,0-21.12,9.09t-8.05,23.42q0,14.85,7.95,23.73,7.94,9.1,20.91,9.1a25.92,25.92,0,0,0,20.28-9.1Q329.54,140.28,329.55,126.47Z"/><path class="cls-3" d="M373,125.18a39.51,39.51,0,0,1,12.33-29.31,43.49,43.49,0,0,1,60.26.08q12.26,12.17,12.25,29.89,0,17.88-12.33,30t-30.46,12q-17.88,0-30-12.25Q373,143.47,373,125.18Zm18.78.33q0,11.92,6.37,18.86,6.54,7,17.23,7t17.23-7q6.45-6.93,6.45-18.53t-6.45-18.54q-6.52-7-17.23-7-10.53,0-17.06,7T391.76,125.51Z"/><path class="cls-2" d="M591.78,135.2H512.41q1,13.65,8.87,21.72t20.13,8q9.55,0,15.81-4.55t14-16.82l21.61,12.05a85.88,85.88,0,0,1-10.58,14.61,56,56,0,0,1-11.94,10,47.86,47.86,0,0,1-13.76,5.74,67.12,67.12,0,0,1-16,1.82q-24.79,0-39.8-15.92t-15-42.53q0-26.26,14.56-42.53,14.67-16,38.89-16,24.43,0,38.66,15.58t14.1,42.87Zm-26.26-20.92q-5.35-20.46-25.82-20.47A26.67,26.67,0,0,0,531,95.23a25.2,25.2,0,0,0-7.45,4.1,25.81,25.81,0,0,0-5.74,6.42,29.84,29.84,0,0,0-3.64,8.53Z"/><path class="cls-2" d="M691.14,34.64,708,23.5,714.62,28V184.55l-23.48,6.66-6.65-4.41L691.14,173Q676,187.74,656.92,187.74q-22.75,0-37.76-16.6-14.89-16.95-14.89-42.3,0-24.79,14.89-41.4t37.19-16.71q19.44,0,34.79,15.92Zm-60.72,94.2q0,15.91,8.53,25.92A27.93,27.93,0,0,0,661,164.88q14.22,0,23-9.78,8.76-10.11,8.76-25.69T684,103.7q-8.76-9.89-22.74-9.89a28.28,28.28,0,0,0-22.06,10Q630.42,113.95,630.42,128.84Z"/><path class="cls-2" d="M764.46,80.45v56.91q0,27.52,21.72,27.52t21.72-27.52V80.45L826.83,76l6.66,4.43v57.48q0,14-3.3,23a38.55,38.55,0,0,1-11,15.58q-13,11.27-33,11.26t-32.86-11.26a39.18,39.18,0,0,1-11.26-15.58q-3.18-8.42-3.18-23V80.45L757.76,76Z"/><path class="cls-3" d="M585.64,130.63H506.37q1,13.63,8.86,21.69t20.1,8q9.54,0,15.78-4.54t14-16.81l21.58,12a85.24,85.24,0,0,1-10.56,14.59,55.88,55.88,0,0,1-11.93,10,47.83,47.83,0,0,1-13.74,5.73,67,67,0,0,1-16,1.82q-24.76,0-39.75-15.9t-15-42.47q0-26.24,14.54-42.48,14.64-16,38.84-16,24.41,0,38.61,15.56t14.08,42.81ZM559.4,109.74q-5.34-20.44-25.78-20.45a26.61,26.61,0,0,0-8.74,1.42,25,25,0,0,0-7.44,4.09,25.77,25.77,0,0,0-5.73,6.42,29.78,29.78,0,0,0-3.64,8.52Z"/><path class="cls-3" d="M684.87,30.2l23.45-6.65V179.92l-23.45,6.65V168.34q-15.11,14.76-34.18,14.76Q628,183.1,613,166.52,598.1,149.6,598.1,124.27q0-24.75,14.88-41.33t37.14-16.7q19.41,0,34.75,15.9Zm-60.65,94.07q0,15.9,8.52,25.9a27.89,27.89,0,0,0,22,10.1q14.21,0,22.94-9.76,8.74-10.11,8.75-25.67t-8.75-25.67Q669,89.3,655,89.29a28.25,28.25,0,0,0-22,10Q624.22,109.4,624.22,124.27Z"/><path class="cls-3" d="M758.09,76v56.84q0,27.48,21.7,27.48t21.69-27.48V76H827v57.41q0,14-3.29,22.94a38.72,38.72,0,0,1-11,15.56q-12.94,11.23-32.93,11.24T747,171.86a39.24,39.24,0,0,1-11.24-15.56q-3.18-8.4-3.18-22.94V76Z"/></g></g></svg>