<svg xmlns="http://www.w3.org/2000/svg" viewBox="0 0 31.32 31.24"><defs><style>.cls-1{fill:#fff;}</style></defs><title>Ativo 18</title><g id="Camada_2" data-name="Camada 2"><g id="Camada_1-2" data-name="Camada 1"><path class="cls-1" d="M8,28.63a8.1,8.1,0,0,0-5.38-5.37L0,31.24Z"/><path class="cls-1" d="M24.6,1.4a12.48,12.48,0,0,1,3,2.29,12.44,12.44,0,0,1,2.3,3l.16.34.78-.78a1.56,1.56,0,0,0,.46-1.16c0-1.65-1.89-4-3.89-4.82A2.12,2.12,0,0,0,25,.46l-.78.78Z"/><path class="cls-1" d="M26.31,5C24.44,3.15,23,2.65,22.73,2.77L3.74,21.7a9.79,9.79,0,0,1,5.82,5.8l19-18.93C28.66,8.3,28.17,6.86,26.31,5Z"/></g></g></svg>