<?xml version="1.0"?>
<svg xmlns="http://www.w3.org/2000/svg" height="512px" version="1.1" viewBox="0 -21 1707.5 1707" width="512px" class=""><g><g id="surface1">
<path d="M 884.242188 671.054688 L 1280.625 671.054688 L 1280.625 152.707031 C 1280.519531 68.546875 1212.328125 0.355469 1128.167969 0.25 L 152.457031 0.25 C 68.296875 0.355469 0.105469 68.546875 0 152.707031 L 0 762.527344 C 0.105469 846.683594 68.296875 914.871094 152.457031 914.980469 L 304.910156 914.980469 C 321.753906 914.980469 335.402344 928.628906 335.402344 945.472656 L 335.402344 1115.796875 L 527.28125 923.914062 C 533 918.203125 540.75 914.980469 548.839844 914.980469 L 670.804688 914.980469 L 670.804688 884.492188 C 670.9375 766.671875 766.421875 671.1875 884.242188 671.054688 Z M 914.730469 183.195312 L 1097.679688 183.195312 L 1097.679688 244.179688 L 914.730469 244.179688 Z M 182.945312 183.195312 L 792.769531 183.195312 L 792.769531 244.179688 L 182.945312 244.179688 Z M 182.945312 366.144531 L 1097.679688 366.144531 L 1097.679688 427.125 L 182.945312 427.125 Z M 182.945312 549.089844 L 487.855469 549.089844 L 487.855469 610.070312 L 182.945312 610.070312 Z M 609.820312 793.019531 L 182.945312 793.019531 L 182.945312 732.035156 L 609.820312 732.035156 Z M 609.820312 610.070312 L 609.820312 549.089844 L 1097.679688 549.089844 L 1097.679688 610.070312 Z M 609.820312 610.070312 " data-original="#000000" class="active-path" data-old_color="#ffffff" fill="#ffffff"/>
<path d="M 1555.042969 732.035156 L 884.242188 732.035156 C 800.089844 732.148438 731.898438 800.339844 731.785156 884.492188 L 731.785156 1311.367188 C 731.898438 1395.523438 800.089844 1463.710938 884.242188 1463.820312 L 1219.644531 1463.820312 C 1227.730469 1463.820312 1235.488281 1467.042969 1241.199219 1472.753906 L 1433.082031 1664.636719 L 1433.082031 1494.3125 C 1433.082031 1477.46875 1446.726562 1463.820312 1463.570312 1463.820312 L 1555.042969 1463.820312 C 1639.203125 1463.710938 1707.394531 1395.523438 1707.5 1311.367188 L 1707.5 884.492188 C 1707.394531 800.339844 1639.203125 732.148438 1555.042969 732.035156 Z M 853.75 884.492188 L 1280.625 884.492188 L 1280.625 945.472656 L 853.75 945.472656 Z M 1585.535156 1311.367188 L 853.75 1311.367188 L 853.75 1250.382812 L 1585.535156 1250.382812 Z M 1585.535156 1128.417969 L 853.75 1128.417969 L 853.75 1067.4375 L 1585.535156 1067.4375 Z M 1585.535156 945.472656 L 1402.589844 945.472656 L 1402.589844 884.492188 L 1585.535156 884.492188 Z M 1585.535156 945.472656 " data-original="#000000" class="active-path" data-old_color="#ffffff" fill="#ffffff"/>
</g></g> </svg>
