<svg xmlns="http://www.w3.org/2000/svg" viewBox="0 0 44.95 38.3"><defs><style>.cls-1{fill:none;stroke:#ededed;stroke-miterlimit:10;}</style></defs><title>stats</title><g id="Camada_2" data-name="Camada 2"><g id="Camada_1-2" data-name="Camada 1"><path id="stats" class="cls-1" d="M43,33.1H41.18V12a2,2,0,0,0-2-2.07h-6A1.9,1.9,0,0,0,31.37,12V33.1H27.73c0-.4,0-.57,0-.84V3.16c0-1.56-.89-2.66-2-2.66h-6a2.45,2.45,0,0,0-2.16,2.66l0,29.83v.11H14.66V19.27c0-.77-.91-1.39-2-1.39h-6c-1.1,0-2.13.62-2.13,1.39V33.1H1.75c-.69,0-1.25.23-1.25.62v3.39c0,.39.56.69,1.25.69H43c.7,0,1.41-.3,1.41-.69V33.72C44.45,33.33,43.74,33.1,43,33.1Z"/></g></g></svg>